<svg width="24" height="26" viewBox="0 0 24 26" fill="none" xmlns="http://www.w3.org/2000/svg">
<path fill-rule="evenodd" clip-rule="evenodd" d="M2.1549 13.6223C-1.00082 10.0315 -0.649546 4.56138 2.9395 1.40416L4.53572 0L6.20459 1.89893L4.60837 3.30309C2.06758 5.53818 1.8189 9.41064 4.05293 11.9526L12.3066 21.3442C14.1833 23.4795 17.4346 23.6884 19.5688 21.811C21.7031 19.9335 21.9119 16.6807 20.0354 14.5455L12.7489 6.25446C11.6194 4.96921 9.66222 4.84341 8.37761 5.97348C7.093 7.10355 6.96724 9.06162 8.09674 10.3468L14.8596 18.0421C15.0666 18.2775 15.4975 18.3323 15.7986 18.0849C16.0823 17.818 16.083 17.3834 15.8761 17.1479L8.31398 8.5433L10.2121 6.87359L17.7742 15.4783C18.9494 16.8154 18.7415 18.8289 17.4855 19.968L17.4859 19.9683L17.4495 20.0002L17.4492 20C16.1594 21.1004 14.1368 21.0489 12.9616 19.7117L6.19874 12.0166C4.14752 9.6825 4.37585 6.12675 6.70873 4.07455C9.04164 2.02235 12.5957 2.2508 14.6469 4.58479L21.9334 12.8757C24.7316 16.0597 24.4202 20.9103 21.2377 23.7099C18.0551 26.5095 13.2069 26.1979 10.4087 23.0139L2.1549 13.6223Z" fill="#CC5500"/>
</svg>
