<svg width="106" height="106" viewBox="0 0 106 106" fill="none" xmlns="http://www.w3.org/2000/svg">
<path d="M45.3547 5.13542C49.6672 2.06209 55.4544 2.06209 59.7669 5.13542L64.9517 8.8303C66.7836 10.1358 68.9358 10.9191 71.1783 11.0966L77.525 11.5988C82.8041 12.0166 87.2373 15.7365 88.5655 20.8629L90.1622 27.026C90.7263 29.2036 91.8715 31.1871 93.4753 32.7645L98.0143 37.2288C101.79 40.9422 102.795 46.6414 100.517 51.4221L97.7786 57.1697C96.811 59.2005 96.4133 61.456 96.6279 63.6952L97.2354 70.0328C97.7407 75.3042 94.8472 80.316 90.0293 82.5142L84.2371 85.1568C82.1905 86.0906 80.436 87.5627 79.1611 89.4161L75.5528 94.6614C72.5514 99.0244 67.1133 101.004 62.0097 99.5907L55.8739 97.8919C53.7059 97.2917 51.4156 97.2917 49.2477 97.8919L43.1119 99.5907C38.0083 101.004 32.5702 99.0244 29.5688 94.6614L25.9605 89.4161C24.6855 87.5627 22.9311 86.0906 20.8845 85.1568L15.0923 82.5142C10.2744 80.316 7.38085 75.3042 7.88615 70.0328L8.49364 63.6952C8.70829 61.456 8.31058 59.2005 7.34301 57.1697L4.60458 51.4221C2.32682 46.6414 3.33174 40.9422 7.10724 37.2288L11.6463 32.7645C13.2501 31.1871 14.3953 29.2036 14.9594 27.026L16.5561 20.8629C17.8842 15.7365 22.3175 12.0166 27.5966 11.5988L33.9433 11.0966C36.1858 10.9191 38.338 10.1358 40.1699 8.8303L45.3547 5.13542Z" fill="white"/>
<path d="M45.4746 5.30371C49.7152 2.28169 55.4058 2.28184 59.6465 5.30371L64.832 8.99902C66.6944 10.3261 68.8824 11.1223 71.1621 11.3027L77.5088 11.8047C82.6999 12.2155 87.0593 15.8741 88.3652 20.915L89.9619 27.0781C90.5355 29.2919 91.6996 31.3085 93.3301 32.9121L97.8691 37.376C101.582 41.0274 102.57 46.632 100.33 51.333L97.5918 57.0811C96.6082 59.1456 96.2037 61.4384 96.4219 63.7148L97.0293 70.0527C97.5261 75.2363 94.6809 80.1647 89.9434 82.3262L84.1514 84.9688C82.0707 85.9181 80.2864 87.4146 78.9902 89.2988L75.3818 94.5439C72.4305 98.8341 67.083 100.781 62.0645 99.3916L55.9287 97.6924C53.7247 97.0823 51.3963 97.0822 49.1924 97.6924L43.0566 99.3916C38.0381 100.781 32.6905 98.8342 29.7393 94.5439L26.1309 89.2988C24.8347 87.4147 23.0512 85.9181 20.9707 84.9688L15.1777 82.3262C10.4404 80.1647 7.59503 75.2361 8.0918 70.0527L8.69922 63.7148C8.91741 61.4385 8.51379 59.1455 7.53027 57.0811L4.79102 51.333C2.55135 46.632 3.53945 41.0274 7.25195 37.376L11.791 32.9121C13.4215 31.3085 14.5866 29.292 15.1602 27.0781L16.7568 20.915C18.0628 15.8741 22.4222 12.2155 27.6133 11.8047L33.96 11.3027C36.2397 11.1223 38.4277 10.3262 40.29 8.99902L45.4746 5.30371Z" stroke="white" stroke-opacity="0.5" style="mix-blend-mode:soft-light" stroke-width="0.413893"/>
<path d="M44.3823 9.74173C49.204 6.30555 55.6744 6.30555 60.4961 9.74173L63.0194 11.5399C65.0676 12.9996 67.4738 13.8754 69.9811 14.0738L73.0699 14.3182C78.9723 14.7853 83.9289 18.9444 85.4138 24.676L86.1909 27.6754C86.8216 30.1101 88.102 32.3277 89.8951 34.0913L92.1041 36.264C96.3254 40.4158 97.449 46.7879 94.9023 52.133L93.5696 54.9302C92.4878 57.2007 92.0431 59.7225 92.2831 62.2262L92.5787 65.3105C93.1437 71.2043 89.9085 76.8078 84.5218 79.2654L81.7029 80.5516C79.4147 81.5955 77.4531 83.2415 76.0277 85.3137L74.2716 87.8664C70.9159 92.7445 64.8357 94.9575 59.1296 93.3777L56.1435 92.5509C53.7196 91.8798 51.1589 91.8798 48.7349 92.5509L45.7489 93.3777C40.0427 94.9575 33.9625 92.7445 30.6068 87.8664L28.8507 85.3137C27.4253 83.2415 25.4637 81.5955 23.1755 80.5516L20.3566 79.2654C14.9699 76.8078 11.7347 71.2043 12.2997 65.3105L12.5953 62.2262C12.8353 59.7225 12.3906 57.2008 11.3088 54.9302L9.97614 52.133C7.42944 46.7879 8.55302 40.4158 12.7743 36.264L14.9833 34.0913C16.7764 32.3277 18.0568 30.1101 18.6876 27.6754L19.4646 24.676C20.9495 18.9444 25.9062 14.7853 31.8085 14.3182L34.8973 14.0738C37.4046 13.8754 39.8108 12.9996 41.859 11.5399L44.3823 9.74173Z" fill="url(#paint0_linear_2015_7134)"/>
<path d="M44.3823 9.74173C49.204 6.30555 55.6744 6.30555 60.4961 9.74173L63.0194 11.5399C65.0676 12.9996 67.4738 13.8754 69.9811 14.0738L73.0699 14.3182C78.9723 14.7853 83.9289 18.9444 85.4138 24.676L86.1909 27.6754C86.8216 30.1101 88.102 32.3277 89.8951 34.0913L92.1041 36.264C96.3254 40.4158 97.449 46.7879 94.9023 52.133L93.5696 54.9302C92.4878 57.2007 92.0431 59.7225 92.2831 62.2262L92.5787 65.3105C93.1437 71.2043 89.9085 76.8078 84.5218 79.2654L81.7029 80.5516C79.4147 81.5955 77.4531 83.2415 76.0277 85.3137L74.2716 87.8664C70.9159 92.7445 64.8357 94.9575 59.1296 93.3777L56.1435 92.5509C53.7196 91.8798 51.1589 91.8798 48.7349 92.5509L45.7489 93.3777C40.0427 94.9575 33.9625 92.7445 30.6068 87.8664L28.8507 85.3137C27.4253 83.2415 25.4637 81.5955 23.1755 80.5516L20.3566 79.2654C14.9699 76.8078 11.7347 71.2043 12.2997 65.3105L12.5953 62.2262C12.8353 59.7225 12.3906 57.2008 11.3088 54.9302L9.97614 52.133C7.42944 46.7879 8.55302 40.4158 12.7743 36.264L14.9833 34.0913C16.7764 32.3277 18.0568 30.1101 18.6876 27.6754L19.4646 24.676C20.9495 18.9444 25.9062 14.7853 31.8085 14.3182L34.8973 14.0738C37.4046 13.8754 39.8108 12.9996 41.859 11.5399L44.3823 9.74173Z" fill="url(#paint1_linear_2015_7134)"/>
<path d="M44.5166 9.92969C49.2579 6.55095 55.621 6.55084 60.3623 9.92969L62.8848 11.7285C64.9671 13.2125 67.4138 14.103 69.9629 14.3047L73.0518 14.5488C78.8557 15.0082 83.7293 19.0983 85.1895 24.7344L85.9668 27.7334C86.608 30.2085 87.9096 32.4629 89.7324 34.2559L91.9414 36.4287C96.0922 40.5112 97.1975 46.7772 94.6934 52.0332L93.3604 54.8311C92.2607 57.1393 91.8088 59.7029 92.0527 62.248L92.3486 65.333C92.9039 71.1284 89.7225 76.6381 84.4258 79.0547L81.6064 80.3408C79.2802 81.4022 77.2861 83.076 75.8369 85.1826L74.0811 87.7354C70.7813 92.5321 64.8025 94.7078 59.1914 93.1543L56.2051 92.3281C53.7408 91.6459 51.1371 91.6459 48.6729 92.3281L45.6875 93.1543C40.0765 94.7078 34.0977 92.5319 30.7979 87.7354L29.041 85.1826C27.5918 83.076 25.5978 81.4022 23.2715 80.3408L20.4521 79.0547C15.1557 76.638 11.975 71.1283 12.5303 65.333L12.8252 62.248C13.0691 59.7028 12.6173 57.1393 11.5176 54.8311L10.1846 52.0332C7.68058 46.7772 8.78573 40.5112 12.9365 36.4287L15.1455 34.2559C16.9684 32.4629 18.2699 30.2086 18.9111 27.7334L19.6885 24.7344C21.1486 19.0983 26.0231 15.0081 31.8271 14.5488L34.916 14.3047C37.4648 14.1029 39.911 13.2123 41.9932 11.7285L44.5166 9.92969Z" stroke="white" stroke-opacity="0.5" style="mix-blend-mode:soft-light" stroke-width="0.462759"/>
<g opacity="0.5" style="mix-blend-mode:soft-light">
<path d="M82.6729 28.4033L83.084 29.9902H83.085L82.8926 30.04L83.1504 31.0322C83.2524 31.4258 83.3835 31.8104 83.542 32.1816L83.7236 32.1035L83.7246 32.1025C83.973 32.6844 84.2903 33.2341 84.6699 33.7402V33.7412L84.5107 33.8604C84.7529 34.1831 85.0198 34.4884 85.3096 34.7734L86.041 35.4922L86.1797 35.3506V35.3496L87.3486 36.5V36.501L87.21 36.6426L88.6719 38.0801L88.8105 37.9385V37.9375L89.9795 39.0869V39.0879L89.8408 39.2295L90.5713 39.9482C90.783 40.1565 90.9807 40.3755 91.1641 40.6025L91.3174 40.4775C91.624 40.8571 91.8914 41.2604 92.1191 41.6816L91.9463 41.7764C92.2277 42.2971 92.4466 42.846 92.6006 43.4111L92.79 43.3594C92.9171 43.8257 93.001 44.3025 93.041 44.7842L92.8457 44.8008C92.8942 45.3845 92.8763 45.975 92.79 46.5605L92.9834 46.5889C92.9135 47.0628 92.8009 47.5334 92.6426 47.9951L92.457 47.9316C92.3624 48.2076 92.2507 48.48 92.123 48.748L91.6826 49.6738L91.8604 49.7578L91.1553 51.2383L90.9766 51.1543L90.0947 53.0049L90.2734 53.0889L89.5684 54.5703L89.3896 54.4854L88.9492 55.4102C88.7744 55.7772 88.6279 56.1558 88.5107 56.542L88.7002 56.5996H88.7012C88.5175 57.205 88.4066 57.8302 88.3721 58.4619L88.1738 58.4512C88.1518 58.8542 88.1594 59.2603 88.1982 59.665L88.2969 60.6846L88.4941 60.666V60.665L88.6504 62.2979V62.2988L88.4531 62.3174L88.6484 64.3584L88.8457 64.3389V64.3379L89.002 65.9717H89.0029L88.8047 65.9902L88.9033 67.0107C88.9317 67.3064 88.942 67.6008 88.9365 67.8926L89.1348 67.8965C89.1256 68.384 89.0699 68.8643 88.9736 69.333L88.7812 69.2939C88.6621 69.874 88.4768 70.4356 88.2314 70.9678L88.4092 71.0498C88.2069 71.4884 87.9652 71.9073 87.6865 72.3018L87.5264 72.1895C87.1882 72.668 86.7943 73.1087 86.3516 73.502L86.4824 73.6494C86.1245 73.9673 85.7351 74.2541 85.3174 74.5059L85.2158 74.3379C85.0909 74.4132 84.9631 74.4851 84.833 74.5537L84.4355 74.749L83.5029 75.1748L83.584 75.3545L82.0918 76.0352L82.0107 75.8555L80.1455 76.7061L80.2275 76.8867L78.7363 77.5674L78.6533 77.3867L77.7207 77.8125C77.351 77.9812 76.9961 78.177 76.6582 78.3975L76.7666 78.5635C76.2366 78.9092 75.75 79.3174 75.3174 79.7793L75.1729 79.6436C74.9659 79.8646 74.7706 80.0977 74.5889 80.3418L74.4121 80.5889L73.8311 81.4336L73.9932 81.5449L73.0635 82.8965L72.9014 82.7852L71.7393 84.4736L71.9023 84.585L70.9727 85.9365L70.8105 85.8252L70.2295 86.6689C70.0612 86.9136 69.8802 87.1462 69.6885 87.3662L69.8369 87.4961C69.5164 87.8639 69.1654 88.1968 68.79 88.4941L68.668 88.3398C68.204 88.7075 67.7017 89.0187 67.1719 89.2686L67.2549 89.4463C66.8177 89.6524 66.3629 89.8183 65.8955 89.9414L65.8457 89.751C65.2791 89.9002 64.6943 89.9853 64.1025 90.002L64.1074 90.1982C63.6285 90.2117 63.1453 90.1832 62.6631 90.1074L62.6953 89.9121C62.4071 89.8668 62.1191 89.8048 61.833 89.7256L60.8447 89.4521L60.792 89.6426H60.791L59.2109 89.2051H59.2119L59.2646 89.0146L57.2891 88.4678L57.2363 88.6582H57.2354L55.6543 88.2207L55.708 88.0293L54.7207 87.7559L54.4258 87.6807C54.1298 87.6106 53.8308 87.5577 53.5303 87.5215L53.5059 87.7178L53.5049 87.7188C52.8772 87.6431 52.2429 87.6431 51.6152 87.7188V87.7178L51.5908 87.5215C51.1902 87.5698 50.7921 87.6474 50.4004 87.7559L49.4131 88.0293L49.4658 88.2207L47.8848 88.6582L47.832 88.4678L45.8564 89.0146L45.9092 89.2051L44.3291 89.6426L44.2764 89.4521L43.2881 89.7256C43.002 89.8048 42.714 89.8668 42.4258 89.9121L42.457 90.1074C41.9748 90.1832 41.4916 90.2117 41.0127 90.1982L41.0186 90.002C40.4267 89.9853 39.842 89.9002 39.2754 89.751L39.2246 89.9414C38.7573 89.8183 38.3024 89.6524 37.8652 89.4463L37.9492 89.2686C37.4193 89.0187 36.9171 88.7075 36.4531 88.3398L36.3301 88.4941C35.9548 88.1968 35.6037 87.8639 35.2832 87.4961L35.4326 87.3662C35.2409 87.1462 35.0599 86.9136 34.8916 86.6689L34.3105 85.8252L34.1475 85.9365L33.2178 84.585L33.3818 84.4736L32.2197 82.7852L32.0566 82.8965L31.127 81.5449L31.29 81.4336L30.709 80.5889C30.4786 80.254 30.224 79.9381 29.9482 79.6436L29.8037 79.7793H29.8027C29.3701 79.3174 28.8836 78.9092 28.3535 78.5635H28.3545L28.4629 78.3975C28.125 78.177 27.7701 77.9812 27.4004 77.8125L26.4678 77.3867L26.3848 77.5674H26.3838L24.8926 76.8867H24.8936L24.9756 76.7061L23.1104 75.8555L23.0283 76.0352L21.5361 75.3545L21.6182 75.1748L20.6855 74.749C20.4155 74.6258 20.1551 74.4884 19.9053 74.3379L19.8027 74.5059C19.3851 74.2541 18.9955 73.9673 18.6377 73.6494L18.7695 73.502C18.3268 73.1087 17.9329 72.668 17.5947 72.1895L17.4336 72.3018C17.155 71.9073 16.9131 71.4883 16.7109 71.0498L16.8896 70.9678C16.6443 70.4356 16.459 69.874 16.3398 69.2939L16.1465 69.333C16.0502 68.8643 15.9945 68.3839 15.9854 67.8965L16.1846 67.8926C16.1791 67.6008 16.1894 67.3064 16.2178 67.0107L16.3164 65.9902L16.1182 65.9717L16.2744 64.3379L16.2754 64.3389L16.4727 64.3584L16.668 62.3174L16.4707 62.2988L16.4697 62.2979L16.626 60.665L16.627 60.666L16.8242 60.6846L16.9229 59.665C16.9616 59.2603 16.9692 58.8542 16.9473 58.4512L16.749 58.4619H16.748C16.7136 57.8301 16.6027 57.2051 16.4189 56.5996H16.4209L16.6104 56.542C16.4932 56.1558 16.3467 55.7772 16.1719 55.4102L15.7314 54.4854L15.5527 54.5703H15.5518L14.8467 53.0889L15.0264 53.0049L14.1445 51.1543L13.9648 51.2383L13.2598 49.7578L13.4385 49.6738L12.998 48.748L12.8193 48.3428C12.7638 48.2066 12.7114 48.0697 12.6641 47.9316L12.4775 47.9951C12.3193 47.5335 12.2066 47.0627 12.1367 46.5889L12.3311 46.5605C12.2447 45.975 12.2269 45.3845 12.2754 44.8008L12.0791 44.7842C12.1192 44.3026 12.203 43.8256 12.3301 43.3594L12.5205 43.4111C12.6745 42.846 12.8934 42.2971 13.1748 41.7764L13.001 41.6816C13.2286 41.2604 13.4962 40.8571 13.8027 40.4775L13.957 40.6025C14.0486 40.4892 14.1435 40.3774 14.2422 40.2686L14.5498 39.9482L15.2803 39.2295L15.1416 39.0879L15.1406 39.0869L16.3096 37.9375L16.3105 37.9385L16.4492 38.0801L17.9111 36.6426L17.7725 36.501L17.7715 36.5L18.9404 35.3496L18.9414 35.3506L19.0801 35.4922L19.8115 34.7734C20.1013 34.4884 20.3682 34.1831 20.6104 33.8604L20.4512 33.7412L20.4502 33.7402C20.8299 33.2341 21.1471 32.6844 21.3955 32.1025L21.3975 32.1035L21.5791 32.1816C21.7376 31.8104 21.8687 31.4258 21.9707 31.0322L22.2285 30.04L22.0361 29.9902L22.4473 28.4033L22.6396 28.4531L23.1533 26.4688L22.9619 26.4189L22.9609 26.418L23.3721 24.8301L23.373 24.8311L23.5645 24.8809L23.8223 23.8887C23.8967 23.6013 23.9869 23.3211 24.0918 23.0488L23.9062 22.9775C24.0817 22.5221 24.2977 22.0886 24.5488 21.6807L24.7168 21.7842C25.0272 21.2799 25.3941 20.8165 25.8066 20.4004L25.666 20.2617C26.0061 19.9187 26.3766 19.6074 26.7734 19.332L26.8867 19.4932C27.3681 19.1591 27.889 18.8792 28.4395 18.6611L28.3662 18.4775C28.8115 18.3011 29.2759 18.164 29.7549 18.0703L29.793 18.2646C29.9362 18.2366 30.0808 18.2124 30.2266 18.1924L30.667 18.1445L31.6885 18.0645L31.6729 17.8662L33.3066 17.7363L33.3076 17.7373L33.3232 17.9346L35.3672 17.7734L35.3516 17.5752L36.9854 17.4453L36.9863 17.4463L37.002 17.6436L38.0234 17.5625C38.4287 17.5304 38.8296 17.4686 39.2227 17.377L39.1777 17.1836L39.1768 17.1816C39.7931 17.038 40.3896 16.8212 40.9541 16.5352L40.9551 16.5371L41.0449 16.7139C41.3149 16.577 41.5778 16.4249 41.832 16.2578L42.083 16.085L42.918 15.4902L42.8027 15.3291L42.8018 15.3281L44.1377 14.377L44.2529 14.5391L45.9229 13.3486L45.8076 13.1875L45.8066 13.1865L47.1426 12.2354L47.2578 12.3975L48.0928 11.8027C48.3347 11.6304 48.5844 11.4732 48.8398 11.332L48.7432 11.1582C49.17 10.9223 49.6141 10.7301 50.0684 10.5791L50.1309 10.7666C50.6928 10.5798 51.2719 10.4588 51.8555 10.4053L51.8369 10.209C52.318 10.1648 52.8021 10.1649 53.2832 10.209L53.2656 10.4053C53.8492 10.4588 54.4283 10.5798 54.9902 10.7666L55.0518 10.5791C55.506 10.7301 55.95 10.9223 56.377 11.1582L56.2812 11.332C56.5367 11.4732 56.7864 11.6304 57.0283 11.8027L57.8633 12.3975L57.9775 12.2354L59.3135 13.1865V13.1875L59.1982 13.3486L60.8682 14.5391L60.9824 14.377L62.3184 15.3281V15.3291L62.2031 15.4902L63.0381 16.085C63.3692 16.3209 63.7162 16.5314 64.0762 16.7139L64.166 16.5371V16.5352C64.7304 16.8213 65.3271 17.0379 65.9434 17.1816V17.1836L65.8984 17.377C66.2915 17.4686 66.6924 17.5304 67.0977 17.5625L68.1191 17.6436L68.1348 17.4463V17.4453L69.7686 17.5752L69.7539 17.7734L71.7979 17.9346L71.8135 17.7373V17.7363L73.4473 17.8662L73.4326 18.0645L74.4541 18.1445C74.7501 18.168 75.0418 18.2086 75.3281 18.2646L75.3652 18.0703C75.8442 18.164 76.3085 18.3011 76.7539 18.4775L76.6816 18.6611C77.2321 18.8792 77.753 19.1591 78.2344 19.4932L78.3467 19.332C78.7435 19.6074 79.114 19.9187 79.4541 20.2617L79.3145 20.4004C79.727 20.8165 80.0939 21.2799 80.4043 21.7842L80.5713 21.6807C80.8225 22.0887 81.0383 22.522 81.2139 22.9775H81.2148L81.0293 23.0488C81.1342 23.3211 81.2244 23.6013 81.2988 23.8887L81.5566 24.8809L81.748 24.8311V24.8301L82.1592 26.418V26.4189L81.9678 26.4688L82.4814 28.4531L82.6729 28.4033Z" stroke="white" stroke-width="0.39662" stroke-dasharray="1.98 1.59"/>
</g>
<path d="M31.3194 34.4334L32.9173 32.7516L33.3423 33.1555L31.2747 35.3316L28.2254 32.4343L28.6951 31.9399L31.3194 34.4334ZM33.866 27.1628C34.2007 26.9297 34.5399 26.7997 34.8835 26.7728C35.2272 26.7458 35.5575 26.8187 35.8745 26.9914C36.1915 27.1642 36.4786 27.4353 36.736 27.8049C36.9933 28.1746 37.148 28.538 37.2 28.8952C37.252 29.2525 37.2057 29.5876 37.0612 29.9005C36.9166 30.2134 36.677 30.4863 36.3422 30.7194C36.011 30.95 35.6736 31.0788 35.3299 31.1058C34.9863 31.1328 34.656 31.0599 34.339 30.8872C34.022 30.7144 33.7348 30.4432 33.4775 30.0736C33.2202 29.704 33.0655 29.3406 33.0135 28.9833C32.9615 28.6261 33.0078 28.291 33.1523 27.9781C33.2969 27.6652 33.5348 27.3934 33.866 27.1628ZM34.2047 27.6492C33.9885 27.7997 33.8371 27.9802 33.7506 28.1905C33.6676 28.3985 33.651 28.6275 33.7009 28.8775C33.7507 29.1276 33.8715 29.3903 34.0633 29.6658C34.2527 29.9377 34.4571 30.1422 34.6768 30.2792C34.894 30.4127 35.1145 30.4767 35.3383 30.471C35.5656 30.4628 35.7874 30.3835 36.0036 30.233C36.2233 30.08 36.3746 29.8996 36.4576 29.6917C36.5441 29.4813 36.5625 29.2511 36.5126 29.0011C36.4604 28.7475 36.3395 28.4848 36.1502 28.2128C35.9584 27.9373 35.7539 27.7328 35.5367 27.5993C35.3195 27.4658 35.0972 27.4031 34.8699 27.4113C34.6461 27.417 34.4243 27.4963 34.2047 27.6492ZM41.6264 23.0466L43.172 26.9586L42.4193 27.256L39.9336 25.3874L39.2802 24.8438L39.2743 24.8461L39.5486 25.471L40.5462 27.996L39.9654 28.2255L38.4197 24.3135L39.1666 24.0184L41.644 25.8834L42.3079 26.4365L42.3138 26.4342L42.0372 25.8034L41.0396 23.2784L41.6264 23.0466ZM47.39 25.8418C47 25.9053 46.6484 25.8743 46.3352 25.7488C46.0221 25.6233 45.7602 25.4162 45.5497 25.1276C45.3385 24.8349 45.1963 24.4641 45.1233 24.0154C45.0516 23.5751 45.0716 23.1823 45.1833 22.8369C45.2991 22.4909 45.494 22.2074 45.768 21.9863C46.0454 21.7603 46.3813 21.6153 46.7754 21.5511C47.2074 21.4808 47.5684 21.5038 47.8586 21.6201C48.1529 21.7358 48.407 21.9484 48.621 22.258L48.0464 22.655C47.9292 22.4373 47.7691 22.2869 47.5661 22.2037C47.3667 22.1156 47.137 22.0927 46.877 22.1351C46.617 22.1774 46.3983 22.2754 46.221 22.4291C46.0479 22.5821 45.926 22.7849 45.8551 23.0375C45.7837 23.2859 45.7745 23.5736 45.8278 23.9007C45.8817 24.232 45.976 24.5072 46.1107 24.7264C46.2447 24.9413 46.418 25.0939 46.6307 25.1841C46.8476 25.2736 47.0987 25.2952 47.3838 25.2488C47.539 25.2235 47.6806 25.1811 47.8086 25.1215C47.936 25.0577 48.0439 24.9799 48.1322 24.888C48.2199 24.792 48.2814 24.6808 48.3169 24.5545C48.3558 24.4233 48.3619 24.276 48.3353 24.1124L48.3158 23.9929L47.1081 24.1895L47.019 23.6423L48.8243 23.3484L49.1725 25.4871L48.6692 25.569L48.4953 24.7385L48.6314 24.781C48.5737 25.0615 48.4394 25.2943 48.2285 25.4793C48.0217 25.6636 47.7422 25.7845 47.39 25.8418ZM53.8871 23.226L53.8673 23.8566L51.6951 23.7884L51.7149 23.1577L53.8871 23.226ZM59.875 21.8876L59.7548 22.4615L58.345 22.1663L57.6031 25.7093L56.9356 25.5696L57.6776 22.0265L56.2679 21.7313L56.388 21.1574L59.875 21.8876ZM61.2305 26.5535L62.9048 22.6948L65.6994 23.9074L65.4661 24.4453L63.297 23.5041L62.815 24.615L64.5105 25.3506L64.2822 25.8768L62.5867 25.1411L62.0895 26.287L64.3404 27.2637L64.107 27.8016L61.2305 26.5535ZM70.0805 26.3809C70.448 26.6412 70.6742 26.9394 70.759 27.2754C70.8472 27.6138 70.7809 27.9391 70.5599 28.2512C70.3315 28.5736 70.0455 28.7459 69.7018 28.768C69.364 28.7891 69.0114 28.6695 68.6439 28.4092L68.5698 28.4036L67.774 27.84L66.8016 29.213L66.2503 28.8225L68.6815 25.39L70.0805 26.3809ZM68.908 27.9481C69.1334 28.1077 69.3317 28.1805 69.5031 28.1665C69.6803 28.1514 69.8365 28.0486 69.9715 27.8579C70.1041 27.6706 70.1481 27.4909 70.1035 27.3187C70.0623 27.149 69.929 26.9843 69.7037 26.8247L68.8975 26.2537L68.1019 27.3771L68.908 27.9481ZM69.1546 28.2945L69.0535 30.808L68.4138 30.3549L68.5214 28.1741L69.1546 28.2945ZM76.9169 32.4424L73.8663 35.3384L73.4319 34.8808L75.1976 33.2046L76.0739 32.443L76.0695 32.4384L72.5807 33.9841L72.1902 33.5727L73.915 30.1689L73.9106 30.1643L73.1045 30.9999L71.3389 32.6761L70.9045 32.2185L73.9551 29.3225L74.6527 30.0574L73.4707 32.3483L72.9469 33.2498L72.9557 33.259L73.8875 32.7874L76.2324 31.7213L76.9169 32.4424Z" fill="white"/>
<path d="M42.7862 78.7142L40.6024 77.8245L40.1407 78.9577L41.8524 79.655L41.6311 80.198L39.9195 79.5007L39.2366 81.1769L38.6051 80.9196L40.1921 77.0242L43.0074 78.1712L42.7862 78.7142ZM46.8456 79.1794C47.2473 79.2503 47.5794 79.3973 47.842 79.6206C48.1046 79.8438 48.2874 80.1284 48.3903 80.4745C48.4931 80.8205 48.5054 81.2153 48.4272 81.6588C48.3489 82.1024 48.2022 82.4691 47.9871 82.759C47.772 83.0489 47.5029 83.2538 47.1797 83.3737C46.8566 83.4936 46.4941 83.5181 46.0925 83.4472C45.695 83.377 45.3649 83.2303 45.1023 83.0071C44.8397 82.7839 44.6569 82.4992 44.5541 82.1532C44.4512 81.8071 44.4389 81.4124 44.5171 80.9688C44.5954 80.5253 44.7421 80.1586 44.9572 79.8687C45.1723 79.5787 45.4415 79.3738 45.7646 79.254C46.0878 79.1341 46.4481 79.1093 46.8456 79.1794ZM46.7426 79.7631C46.4832 79.7173 46.2486 79.7385 46.0389 79.8266C45.8334 79.9154 45.6601 80.0661 45.5191 80.2785C45.3781 80.4909 45.2784 80.7623 45.2201 81.0929C45.1625 81.4192 45.1632 81.7084 45.2223 81.9605C45.2821 82.2083 45.3933 82.4092 45.556 82.563C45.7229 82.7175 45.936 82.8177 46.1955 82.8635C46.4591 82.91 46.6936 82.8888 46.8991 82.8C47.1088 82.7119 47.2842 82.5616 47.4252 82.3492C47.567 82.1326 47.6667 81.8612 47.7243 81.5348C47.7826 81.2042 47.7818 80.9151 47.722 80.6672C47.6622 80.4194 47.5489 80.2182 47.382 80.0636C47.2193 79.9098 47.0062 79.8096 46.7426 79.7631ZM54.8323 82.8554C54.7591 83.1139 54.6417 83.3362 54.4801 83.5222C54.3183 83.704 54.1248 83.8447 53.8997 83.9443C53.6746 84.044 53.4241 84.1001 53.1482 84.1127C52.745 84.1312 52.3909 84.0602 52.0858 83.8998C51.7807 83.7394 51.5402 83.5016 51.3641 83.1864C51.1881 82.8712 51.0898 82.4886 51.0692 82.0387C51.0486 81.5889 51.1115 81.1989 51.2581 80.869C51.4046 80.539 51.6224 80.2802 51.9115 80.0926C52.2007 79.905 52.5447 79.8021 52.9437 79.7838C53.2196 79.7712 53.4696 79.798 53.6938 79.8643C53.9223 79.9304 54.1185 80.0363 54.2825 80.1819C54.4466 80.3275 54.5763 80.5129 54.6716 80.7383L54.0417 81.0542C53.9454 80.8076 53.814 80.6308 53.6474 80.5236C53.4807 80.4121 53.2679 80.3623 53.009 80.3741C52.7501 80.386 52.5258 80.4579 52.3362 80.59C52.1466 80.722 52.002 80.9072 51.9023 81.1457C51.8069 81.384 51.7669 81.6708 51.7822 82.0061C51.7974 82.3372 51.8613 82.6192 51.9741 82.8522C52.0866 83.081 52.2412 83.2526 52.4378 83.3669C52.6344 83.4812 52.8665 83.5323 53.1338 83.5201C53.3927 83.5082 53.6126 83.4322 53.7933 83.2921C53.9781 83.1475 54.1047 82.9397 54.1731 82.6686L54.8323 82.8554ZM60.2408 78.7275L60.8988 81.2365C61.0399 81.7749 61.0043 82.2169 60.7919 82.5625C60.5794 82.9081 60.202 83.152 59.6595 83.2943C59.1252 83.4344 58.6787 83.4066 58.3198 83.2108C57.9651 83.0139 57.7172 82.6462 57.576 82.1079L56.918 79.5988L57.5777 79.4259L58.2146 81.8547C58.3148 82.237 58.4714 82.499 58.6843 82.6408C58.8972 82.7826 59.1721 82.8094 59.5091 82.721C59.8502 82.6315 60.0787 82.4728 60.1946 82.2447C60.3105 82.0167 60.3184 81.7116 60.2181 81.3293L59.5812 78.9005L60.2408 78.7275ZM64.1047 77.3182C64.4488 77.1613 64.7764 77.0913 65.0876 77.1082C65.3971 77.1211 65.6961 77.2136 65.9846 77.3855L65.7496 77.976C65.5004 77.8188 65.261 77.7342 65.0314 77.7222C64.8039 77.7045 64.5645 77.753 64.3132 77.8676C64.1277 77.9522 63.9864 78.0469 63.8895 78.1518C63.7926 78.2567 63.7345 78.3649 63.7153 78.4764C63.6982 78.5823 63.7134 78.6874 63.761 78.7918C63.8157 78.9116 63.9039 78.9975 64.0256 79.0494C64.1512 79.0995 64.3395 79.0977 64.5905 79.0439L65.4468 78.8636C65.855 78.7755 66.1743 78.7794 66.4047 78.8751C66.6351 78.9708 66.8085 79.1462 66.9249 79.4014C67.0324 79.6372 67.062 79.8711 67.0138 80.1033C66.9656 80.3354 66.8486 80.5499 66.6628 80.7467C66.4809 80.9417 66.2372 81.1088 65.9318 81.2481C65.6612 81.3715 65.4018 81.4478 65.1536 81.4769C64.9054 81.506 64.6728 81.4977 64.4558 81.4519C64.2387 81.4061 64.0428 81.3297 63.8679 81.2226L64.1013 80.5979C64.2442 80.6961 64.4022 80.7712 64.5753 80.823C64.7466 80.871 64.9266 80.887 65.1154 80.8709C65.3081 80.8531 65.5049 80.7983 65.7059 80.7067C65.8838 80.6256 66.0268 80.5347 66.135 80.434C66.247 80.3315 66.3174 80.2247 66.3461 80.1136C66.3769 79.9968 66.3658 79.8804 66.3129 79.7644C66.2618 79.6523 66.1782 79.5714 66.0621 79.5216C65.9499 79.47 65.7807 79.4678 65.5547 79.5148L64.6266 79.7069C64.3718 79.7624 64.1478 79.7782 63.9547 79.7541C63.7617 79.7301 63.5984 79.6691 63.465 79.5712C63.3299 79.4694 63.2244 79.3354 63.1486 79.1691C63.0499 78.9526 63.0189 78.731 63.0555 78.5041C63.0942 78.2717 63.2019 78.0521 63.3786 77.8455C63.5534 77.635 63.7955 77.4592 64.1047 77.3182Z" fill="white"/>
<path d="M24.0873 45.8364L25.2367 49.3739H28.9563L25.9471 51.5603L27.0965 55.0978L24.0873 52.9115L21.0781 55.0978L22.2275 51.5603L19.2183 49.3739H22.9379L24.0873 45.8364Z" fill="#FFE2D6"/>
<path d="M81.0346 45.8364L82.184 49.3739H85.9036L82.8944 51.5603L84.0438 55.0978L81.0346 52.9115L78.0254 55.0978L79.1748 51.5603L76.1656 49.3739H79.8852L81.0346 45.8364Z" fill="#FFE2D6"/>
<path d="M42.4014 51.4019H44.4014V60.4019H42.4014V51.4019ZM45.4014 53.4019H47.4014V60.4019H45.4014V53.4019ZM56.4014 47.4019H58.4014V60.4019H56.4014V47.4019ZM59.4014 49.4019H61.4014V60.4019H59.4014V49.4019ZM49.4014 41.4019H51.4014V60.4019H49.4014V41.4019ZM52.4014 43.4019H54.4014V60.4019H52.4014V43.4019Z" fill="white"/>
<defs>
<linearGradient id="paint0_linear_2015_7134" x1="124.875" y1="3.93739" x2="-11.3303" y2="45.2597" gradientUnits="userSpaceOnUse">
<stop stop-color="#023E38"/>
<stop offset="1" stop-color="#83FBEF"/>
</linearGradient>
<linearGradient id="paint1_linear_2015_7134" x1="99.8784" y1="51.4392" x2="5" y2="51.4392" gradientUnits="userSpaceOnUse">
<stop stop-color="#CC4600"/>
<stop offset="1" stop-color="#FFC7AE"/>
</linearGradient>
</defs>
</svg>
