<svg width="106" height="106" viewBox="0 0 106 106" fill="none" xmlns="http://www.w3.org/2000/svg">
<path d="M45.3547 5.13542C49.6672 2.06209 55.4544 2.06209 59.7669 5.13542L64.9517 8.8303C66.7836 10.1358 68.9358 10.9191 71.1783 11.0966L77.525 11.5988C82.8041 12.0166 87.2373 15.7365 88.5655 20.8629L90.1622 27.026C90.7263 29.2036 91.8715 31.1871 93.4753 32.7645L98.0143 37.2288C101.79 40.9422 102.795 46.6414 100.517 51.4221L97.7786 57.1697C96.811 59.2005 96.4133 61.456 96.6279 63.6952L97.2354 70.0328C97.7407 75.3042 94.8472 80.316 90.0293 82.5142L84.2371 85.1568C82.1905 86.0906 80.436 87.5627 79.1611 89.4161L75.5528 94.6614C72.5514 99.0244 67.1133 101.004 62.0097 99.5907L55.8739 97.8919C53.7059 97.2917 51.4156 97.2917 49.2477 97.8919L43.1119 99.5907C38.0083 101.004 32.5702 99.0244 29.5688 94.6614L25.9605 89.4161C24.6855 87.5627 22.9311 86.0906 20.8845 85.1568L15.0923 82.5142C10.2744 80.316 7.38085 75.3042 7.88615 70.0328L8.49364 63.6952C8.70829 61.456 8.31058 59.2005 7.34301 57.1697L4.60458 51.4221C2.32682 46.6414 3.33174 40.9422 7.10724 37.2288L11.6463 32.7645C13.2501 31.1871 14.3953 29.2036 14.9594 27.026L16.5561 20.8629C17.8842 15.7365 22.3175 12.0166 27.5966 11.5988L33.9433 11.0966C36.1858 10.9191 38.338 10.1358 40.1699 8.8303L45.3547 5.13542Z" fill="white"/>
<path d="M45.4746 5.30371C49.7152 2.28169 55.4058 2.28184 59.6465 5.30371L64.832 8.99902C66.6944 10.3261 68.8824 11.1223 71.1621 11.3027L77.5088 11.8047C82.6999 12.2155 87.0593 15.8741 88.3652 20.915L89.9619 27.0781C90.5355 29.2919 91.6996 31.3085 93.3301 32.9121L97.8691 37.376C101.582 41.0274 102.57 46.632 100.33 51.333L97.5918 57.0811C96.6082 59.1456 96.2037 61.4384 96.4219 63.7148L97.0293 70.0527C97.5261 75.2363 94.6809 80.1647 89.9434 82.3262L84.1514 84.9688C82.0707 85.9181 80.2864 87.4146 78.9902 89.2988L75.3818 94.5439C72.4305 98.8341 67.083 100.781 62.0645 99.3916L55.9287 97.6924C53.7247 97.0823 51.3963 97.0822 49.1924 97.6924L43.0566 99.3916C38.0381 100.781 32.6905 98.8342 29.7393 94.5439L26.1309 89.2988C24.8347 87.4147 23.0512 85.9181 20.9707 84.9688L15.1777 82.3262C10.4404 80.1647 7.59503 75.2361 8.0918 70.0527L8.69922 63.7148C8.91741 61.4385 8.51379 59.1455 7.53027 57.0811L4.79102 51.333C2.55135 46.632 3.53945 41.0274 7.25195 37.376L11.791 32.9121C13.4215 31.3085 14.5866 29.292 15.1602 27.0781L16.7568 20.915C18.0628 15.8741 22.4222 12.2155 27.6133 11.8047L33.96 11.3027C36.2397 11.1223 38.4277 10.3262 40.29 8.99902L45.4746 5.30371Z" stroke="white" stroke-opacity="0.5" style="mix-blend-mode:soft-light" stroke-width="0.413893"/>
<path d="M44.3823 9.74173C49.204 6.30555 55.6744 6.30555 60.4961 9.74173L63.0194 11.5399C65.0676 12.9996 67.4738 13.8754 69.9811 14.0738L73.0699 14.3182C78.9723 14.7853 83.9289 18.9444 85.4138 24.676L86.1909 27.6754C86.8216 30.1101 88.102 32.3277 89.8951 34.0913L92.1041 36.264C96.3254 40.4158 97.449 46.7879 94.9023 52.133L93.5696 54.9302C92.4878 57.2007 92.0431 59.7225 92.2831 62.2262L92.5787 65.3105C93.1437 71.2043 89.9085 76.8078 84.5218 79.2654L81.7029 80.5516C79.4147 81.5955 77.4531 83.2415 76.0277 85.3137L74.2716 87.8664C70.9159 92.7445 64.8357 94.9575 59.1296 93.3777L56.1435 92.5509C53.7196 91.8798 51.1589 91.8798 48.7349 92.5509L45.7489 93.3777C40.0427 94.9575 33.9625 92.7445 30.6068 87.8664L28.8507 85.3137C27.4253 83.2415 25.4637 81.5955 23.1755 80.5516L20.3566 79.2654C14.9699 76.8078 11.7347 71.2043 12.2997 65.3105L12.5953 62.2262C12.8353 59.7225 12.3906 57.2008 11.3088 54.9302L9.97614 52.133C7.42944 46.7879 8.55302 40.4158 12.7743 36.264L14.9833 34.0913C16.7764 32.3277 18.0568 30.1101 18.6876 27.6754L19.4646 24.676C20.9495 18.9444 25.9062 14.7853 31.8085 14.3182L34.8973 14.0738C37.4046 13.8754 39.8108 12.9996 41.859 11.5399L44.3823 9.74173Z" fill="url(#paint0_linear_2015_7114)"/>
<path d="M44.5166 9.92969C49.2579 6.55095 55.621 6.55084 60.3623 9.92969L62.8848 11.7285C64.9671 13.2125 67.4138 14.103 69.9629 14.3047L73.0518 14.5488C78.8557 15.0082 83.7293 19.0983 85.1895 24.7344L85.9668 27.7334C86.608 30.2085 87.9096 32.4629 89.7324 34.2559L91.9414 36.4287C96.0922 40.5112 97.1975 46.7772 94.6934 52.0332L93.3604 54.8311C92.2607 57.1393 91.8088 59.7029 92.0527 62.248L92.3486 65.333C92.9039 71.1284 89.7225 76.6381 84.4258 79.0547L81.6064 80.3408C79.2802 81.4022 77.2861 83.076 75.8369 85.1826L74.0811 87.7354C70.7813 92.5321 64.8025 94.7078 59.1914 93.1543L56.2051 92.3281C53.7408 91.6459 51.1371 91.6459 48.6729 92.3281L45.6875 93.1543C40.0765 94.7078 34.0977 92.5319 30.7979 87.7354L29.041 85.1826C27.5918 83.076 25.5978 81.4022 23.2715 80.3408L20.4521 79.0547C15.1557 76.638 11.975 71.1283 12.5303 65.333L12.8252 62.248C13.0691 59.7028 12.6173 57.1393 11.5176 54.8311L10.1846 52.0332C7.68058 46.7772 8.78573 40.5112 12.9365 36.4287L15.1455 34.2559C16.9684 32.4629 18.2699 30.2086 18.9111 27.7334L19.6885 24.7344C21.1486 19.0983 26.0231 15.0081 31.8271 14.5488L34.916 14.3047C37.4648 14.1029 39.911 13.2123 41.9932 11.7285L44.5166 9.92969Z" stroke="white" stroke-opacity="0.5" style="mix-blend-mode:soft-light" stroke-width="0.462759"/>
<path d="M88.5293 64.5986L88.6846 66.2168H88.6855L88.4893 66.2354L88.5869 67.2461C88.615 67.5392 88.6255 67.8319 88.6201 68.1211L88.8164 68.124C88.8074 68.6076 88.7518 69.0839 88.6562 69.5488L88.4658 69.5098C88.3477 70.0847 88.1641 70.6414 87.9209 71.1689L88.0977 71.25C87.8972 71.6849 87.6572 72.1001 87.3809 72.4912L87.2217 72.3799C86.8865 72.8542 86.4964 73.2919 86.0576 73.6816L86.1875 73.8271C85.8326 74.1424 85.4465 74.4271 85.0322 74.6768L84.9316 74.5098C84.8079 74.5843 84.6816 74.6557 84.5527 74.7236L84.1582 74.918L83.2334 75.3389L83.3145 75.5176L81.835 76.1924L81.7549 76.0137L79.9062 76.8574L79.9873 77.0361L78.5078 77.71L78.4268 77.5322L77.502 77.9541C77.1354 78.1214 76.7832 78.3156 76.4482 78.5342L76.5557 78.6982V78.6992C76.0307 79.0418 75.5486 79.4458 75.1201 79.9033L74.9766 79.7695C74.7714 79.9886 74.5776 80.2191 74.3975 80.4609L74.2217 80.707L73.6465 81.5439L73.8076 81.6543L72.8867 82.9941L72.7246 82.8828L71.5732 84.5576L71.7344 84.668L70.8135 86.0078L70.6514 85.8965L70.0762 86.7334C69.9093 86.976 69.7301 87.2067 69.54 87.4248L69.6875 87.5527C69.3696 87.9176 69.0217 88.2481 68.6494 88.543L68.5283 88.3896C68.0683 88.7541 67.5703 89.0628 67.0449 89.3105L67.1279 89.4863C66.6946 89.6907 66.2436 89.8545 65.7803 89.9766L65.7305 89.7881C65.1689 89.936 64.5895 90.0206 64.0029 90.0371L64.0068 90.2314C63.5328 90.2447 63.0545 90.2166 62.5771 90.1416L62.6074 89.9482C62.3217 89.9034 62.0366 89.8412 61.7529 89.7627L60.7734 89.4922L60.7207 89.6807L59.1543 89.2471L59.207 89.0586L57.248 88.5156L57.1953 88.7051H57.1943L55.6279 88.2715H55.6289L55.6816 88.082L54.7021 87.8115L54.4102 87.7363C54.1167 87.6668 53.8204 87.6141 53.5225 87.5781L53.499 87.7734L53.498 87.7744C52.8755 87.6994 52.2465 87.6993 51.624 87.7744V87.7734L51.6006 87.5781C51.3028 87.614 51.0062 87.6669 50.7129 87.7363L50.4199 87.8115L49.4414 88.082L49.4932 88.2715L47.9268 88.7051L47.874 88.5156L45.916 89.0586L45.9678 89.2471L44.4004 89.6807L44.3496 89.4922L43.3701 89.7627C43.0864 89.8413 42.8004 89.9034 42.5146 89.9482L42.5449 90.1416C42.0673 90.2166 41.5886 90.2448 41.1143 90.2314L41.1201 90.0371C40.5334 90.0206 39.9533 89.936 39.3916 89.7881L39.3418 89.9766C38.8785 89.8545 38.4275 89.6907 37.9941 89.4863L38.0781 89.3105C37.5527 89.0628 37.0538 88.7542 36.5938 88.3896L36.4717 88.542C36.0998 88.2473 35.7522 87.9172 35.4346 87.5527L35.583 87.4248C35.393 87.2067 35.2137 86.976 35.0469 86.7334L34.4707 85.8965L34.3086 86.0068L33.3877 84.668L33.5488 84.5576L32.3975 82.8828L32.2344 82.9941L31.3135 81.6553L31.4766 81.5439L30.9004 80.707L30.7246 80.4609C30.5446 80.2192 30.3515 79.9884 30.1465 79.7695L30.0029 79.9033H30.002C29.5732 79.4456 29.0907 79.0418 28.5654 78.6992L28.5664 78.6982L28.6738 78.5342C28.3388 78.3156 27.9868 78.1214 27.6201 77.9541L26.6953 77.5322L26.6143 77.7109H26.6133L25.1338 77.0361H25.1348L25.2168 76.8574L23.3682 76.0137L23.2861 76.1924L21.8066 75.5186L21.8887 75.3389L20.9648 74.918L20.5703 74.7236C20.4413 74.6556 20.3143 74.5844 20.1904 74.5098L20.0898 74.6768C19.6756 74.4271 19.2895 74.1424 18.9346 73.8271L19.0645 73.6816C18.6256 73.2918 18.2356 72.8543 17.9004 72.3799L17.7412 72.4922C17.4647 72.1008 17.2241 71.6852 17.0234 71.25L17.2012 71.1689C16.958 70.6415 16.7744 70.0847 16.6562 69.5098L16.4648 69.5488C16.3693 69.0837 16.3146 68.6068 16.3057 68.123L16.502 68.1211C16.4992 67.9763 16.5012 67.8305 16.5068 67.6846L16.5361 67.2461L16.6328 66.2354L16.4375 66.2168L16.4365 66.2158L16.5918 64.5986L16.7881 64.6172L16.9814 62.5938L16.7861 62.5752L16.7852 62.5742L16.9404 60.9561L16.9414 60.957L17.1367 60.9756L17.2334 59.9648C17.2623 59.6638 17.2747 59.3621 17.2695 59.0615L17.2588 58.7617L17.0625 58.7725H17.0605C17.0264 58.1459 16.9166 57.5262 16.7344 56.9258H16.7363L16.9248 56.8691C16.8086 56.4863 16.6636 56.1109 16.4902 55.7471L16.0527 54.8301L15.875 54.915L15.1758 53.4473L15.3535 53.3623L14.4795 51.5283L14.3027 51.6123H14.3018L13.6025 50.1455L13.7803 50.0605L13.3438 49.1436L13.166 48.7412C13.1109 48.6062 13.0596 48.4698 13.0127 48.333L12.8271 48.3965C12.6703 47.939 12.5585 47.4725 12.4893 47.0029L12.6826 46.9746C12.597 46.394 12.5798 45.8082 12.6279 45.2295L12.4326 45.2139C12.4723 44.7362 12.5556 44.2632 12.6816 43.8008L12.8701 43.8525C13.0229 43.2921 13.2405 42.7478 13.5195 42.2314L13.3467 42.1387C13.5724 41.7209 13.8376 41.3207 14.1416 40.9443L14.2939 41.0684C14.4757 40.8433 14.6719 40.6264 14.8818 40.4199L15.6064 39.708L15.4688 39.5674L16.627 38.4277L16.7656 38.5674L18.2139 37.1426L18.0762 37.0029L19.2344 35.8623L19.2354 35.8633L19.373 36.0029L20.0977 35.291C20.385 35.0084 20.6495 34.7048 20.8896 34.3848L20.7324 34.2676L20.7305 34.2656C21.1068 33.7639 21.4217 33.2194 21.668 32.6426L21.6699 32.6436L21.8506 32.7207C21.9684 32.4448 22.0707 32.1618 22.1572 31.873L22.2383 31.582L22.4932 30.5986L22.3027 30.5488L22.71 28.9746L22.7109 28.9756L22.9014 29.0244L23.4102 27.0576L23.2207 27.0088L23.2197 27.0078L23.6279 25.4346L23.8184 25.4844L24.0732 24.5C24.147 24.2152 24.2369 23.9377 24.3408 23.668L24.1572 23.5967C24.3312 23.1453 24.5451 22.7158 24.7939 22.3115L24.9609 22.415C25.2686 21.9151 25.631 21.4545 26.04 21.042L25.9004 20.9043C26.2375 20.5643 26.6057 20.2564 26.999 19.9834L27.1113 20.1436C27.5886 19.8124 28.1047 19.5345 28.6504 19.3184L28.5781 19.1367C29.0194 18.9619 29.4795 18.8263 29.9541 18.7334L29.9922 18.9258C30.276 18.8703 30.565 18.8299 30.8584 18.8066L31.8711 18.7266L31.8555 18.5303L33.4766 18.4023L33.4922 18.5986L35.5176 18.4385L35.502 18.2422L37.123 18.1143L37.1387 18.3096L38.1514 18.2295C38.553 18.1977 38.9503 18.1357 39.3398 18.0449L39.2949 17.8535L39.2939 17.8516C39.9049 17.7092 40.4961 17.4945 41.0557 17.2109L41.0566 17.2129L41.1455 17.3877C41.4132 17.252 41.6738 17.1012 41.9258 16.9355L42.1748 16.7656L43.0029 16.1758L42.8887 16.0156L42.8877 16.0146L44.2109 15.0713L44.2119 15.0723L44.3262 15.2324L45.9814 14.0527L45.8672 13.8926L47.1904 12.9492L47.3047 13.1094L48.1328 12.5195C48.3723 12.3489 48.6191 12.1935 48.8721 12.0537L48.7773 11.8818C49.2006 11.6479 49.6404 11.4564 50.0908 11.3066L50.1533 11.4922C50.7102 11.3071 51.284 11.1878 51.8623 11.1348L51.8438 10.9404C52.3206 10.8966 52.8005 10.8967 53.2773 10.9404L53.2607 11.1348C53.8391 11.1879 54.4128 11.3071 54.9697 11.4922L55.0303 11.3066C55.4807 11.4563 55.9204 11.648 56.3438 11.8818L56.25 12.0537C56.5031 12.1936 56.7505 12.3487 56.9902 12.5195L57.8174 13.1094L57.9316 12.9492V12.9482L59.2549 13.8926H59.2559L59.1416 14.0527L60.7959 15.2324L60.9102 15.0723V15.0713L62.2334 16.0156H62.2344L62.1201 16.1758L62.9473 16.7656C63.2754 16.9995 63.6198 17.2069 63.9766 17.3877L64.0654 17.2129V17.2109C64.6249 17.4946 65.2163 17.7091 65.8271 17.8516V17.8535L65.7822 18.0449C66.1719 18.1358 66.5699 18.1977 66.9717 18.2295L67.9844 18.3096L67.999 18.1143L69.6191 18.2422L69.6045 18.4385L71.6309 18.5986L71.6455 18.4023L73.2656 18.5303L73.251 18.7266L74.2637 18.8066C74.5572 18.8299 74.847 18.8702 75.1309 18.9258L75.167 18.7334C75.6419 18.8263 76.1024 18.9618 76.5439 19.1367L76.4727 19.3184C77.0182 19.5345 77.5337 19.8126 78.0107 20.1436L78.1221 19.9824C78.5157 20.2555 78.8834 20.5641 79.2207 20.9043L79.082 21.042C79.491 21.4545 79.8544 21.9151 80.1621 22.415L80.3271 22.3115C80.5761 22.7159 80.7908 23.1452 80.9648 23.5967L80.7822 23.668C80.8861 23.9377 80.976 24.2152 81.0498 24.5L81.3037 25.4844L81.4932 25.4346L81.9014 27.0088H81.9023L81.7119 27.0576L82.2217 29.0244L82.4111 28.9756L82.8184 30.5488H82.8193L82.6289 30.5986L82.8838 31.582C82.9849 31.9722 83.1153 32.3527 83.2725 32.7207L83.4531 32.6436V32.6426C83.6994 33.2196 84.0142 33.7648 84.3906 34.2666V34.2676L84.2334 34.3848C84.4735 34.7048 84.738 35.0084 85.0254 35.291L85.75 36.0029L85.8877 35.8633V35.8623L87.0459 37.002V37.0029L86.9082 37.1426L88.3574 38.5674L88.4951 38.4277V38.4268L89.6533 39.5674H89.6543L89.5166 39.708L90.2402 40.4199C90.4501 40.6264 90.6464 40.8433 90.8281 41.0684L90.9805 40.9443C91.2844 41.3206 91.5487 41.721 91.7744 42.1387L91.6035 42.2314C91.8826 42.7478 92.0992 43.2922 92.252 43.8525L92.4395 43.8008C92.5656 44.2633 92.6487 44.7362 92.6885 45.2139L92.4951 45.2295C92.5433 45.8083 92.525 46.394 92.4395 46.9746L92.6318 47.0029C92.5626 47.4726 92.4508 47.9389 92.2939 48.3965L92.1094 48.333C92.0625 48.4698 92.0111 48.6062 91.9561 48.7412L91.7783 49.1436L91.3418 50.0605L91.5186 50.1445L90.8193 51.6113L90.6426 51.5283L89.7686 53.3623L89.9453 53.4463L89.2461 54.9141L89.0693 54.8301L88.6318 55.7471C88.4585 56.1109 88.3134 56.4863 88.1973 56.8691L88.3857 56.9258H88.3867C88.2045 57.5261 88.0947 58.146 88.0605 58.7725L87.8643 58.7617C87.8425 59.1612 87.8502 59.5636 87.8887 59.9648L87.9854 60.9756L88.1807 60.957L88.3359 62.5742V62.5752L88.1406 62.5938L88.335 64.6172L88.5293 64.5986Z" stroke="black" stroke-width="0.393162" stroke-dasharray="1.97 1.57"/>
<path d="M34.8652 26.7794L37.2719 30.2291L36.7544 30.5901L35.3615 28.5934L34.7396 27.613L34.7344 27.6166L35.7404 31.2975L35.2752 31.6221L32.168 29.4071L32.1628 29.4107L32.8683 30.3328L34.2612 32.3295L33.7438 32.6905L31.3371 29.2408L32.1682 28.661L34.2563 30.1726L35.0692 30.8255L35.0797 30.8182L34.7528 29.8262L34.0498 27.3482L34.8652 26.7794ZM44.2481 26.7041L43.5636 26.9278L42.8395 26.0045L41.1615 26.5527L41.1222 27.7255L40.4559 27.9432L40.6579 23.4521L41.4334 23.1987L44.2481 26.7041ZM41.171 25.9663L42.4856 25.5368L41.2217 23.8847L41.171 25.9663ZM49.5598 21.2853C50.0097 21.2655 50.3712 21.3623 50.6443 21.5756C50.9216 21.7888 51.0687 22.0864 51.0855 22.4684C51.1029 22.8632 50.9827 23.1747 50.7248 23.403C50.471 23.6268 50.1191 23.7486 49.6692 23.7684L49.6072 23.8094L48.633 23.8524L48.7071 25.5332L48.0322 25.563L47.847 21.3608L49.5598 21.2853ZM49.5949 23.2422C49.8708 23.2301 50.0721 23.1659 50.1989 23.0497C50.3296 22.9292 50.3899 22.7521 50.3796 22.5187C50.3695 22.2895 50.294 22.1206 50.1531 22.0119C50.0165 21.9031 49.8102 21.8548 49.5343 21.867L48.5475 21.9104L48.6081 23.2857L49.5949 23.2422ZM50.0022 23.3646L51.464 25.4118L50.6808 25.4463L49.4282 23.6578L50.0022 23.3646ZM59.8364 22.0351L57.5429 23.5706L57.467 23.559L56.1344 24.4461L56.2458 23.7061L59.0244 21.841L59.8364 22.0351ZM57.1463 21.392L56.1683 25.483L55.5051 25.3245L56.483 21.2335L57.1463 21.392ZM57.8007 23.0949L58.8957 26.135L58.1147 25.9483L57.185 23.3409L57.8007 23.0949ZM62.7476 27.1486L64.7753 23.4633L67.4443 24.9319L67.1616 25.4456L65.0901 24.3058L64.5063 25.3667L66.1256 26.2576L65.8491 26.7602L64.2298 25.8692L63.6277 26.9636L65.7774 28.1465L65.4947 28.6602L62.7476 27.1486ZM74.3154 29.5921L73.9381 30.041L72.8355 29.1144L70.5066 31.8857L69.9846 31.447L72.3134 28.6757L71.2107 27.749L71.5879 27.3002L74.3154 29.5921Z" fill="black"/>
<path d="M33.4277 72.075L30.6576 75.2404L30.1444 74.7913L32.9145 71.6259L33.4277 72.075ZM39.9625 76.5813L38.0293 80.317L37.3105 79.945L37.0856 76.8435L37.0661 75.9938L37.0604 75.9909L36.7697 76.6082L35.5219 79.0195L34.9672 78.7324L36.9004 74.9967L37.6136 75.3658L37.8357 78.4587L37.855 79.3227L37.8607 79.3256L38.1544 78.7026L39.4022 76.2914L39.9625 76.5813ZM45.3615 78.7642C45.732 78.8399 46.0381 78.9761 46.2798 79.1729C46.5223 79.3656 46.7095 79.6164 46.8416 79.9252L46.304 80.2642C46.1951 79.9904 46.0514 79.7811 45.8729 79.6362C45.6993 79.488 45.4773 79.3863 45.2067 79.331C45.0069 79.2902 44.8369 79.2836 44.6968 79.3114C44.5567 79.3391 44.4461 79.3924 44.3649 79.4713C44.2888 79.5468 44.2393 79.6407 44.2163 79.7531C44.1899 79.8822 44.2107 80.0035 44.2785 80.1171C44.3506 80.2315 44.5038 80.3409 44.7384 80.4452L45.5368 80.8035C45.9186 80.9725 46.1745 81.1636 46.3044 81.3766C46.4343 81.5896 46.4712 81.8335 46.4151 82.1082C46.3632 82.3622 46.2495 82.5688 46.0738 82.728C45.8982 82.8873 45.6774 82.9918 45.4113 83.0415C45.1495 83.0921 44.8541 83.0838 44.5253 83.0166C44.2339 82.9571 43.9793 82.866 43.7615 82.7435C43.5437 82.6209 43.3605 82.4772 43.2121 82.3125C43.0636 82.1477 42.9502 81.9706 42.8718 81.7811L43.4283 81.4135C43.4859 81.577 43.5694 81.7307 43.6788 81.8744C43.7891 82.0141 43.9252 82.1329 44.0873 82.2311C44.2536 82.3301 44.4449 82.4017 44.6614 82.446C44.8529 82.4851 45.022 82.4958 45.1687 82.478C45.3196 82.4612 45.4393 82.4163 45.528 82.3433C45.6216 82.267 45.6812 82.1664 45.7067 82.0416C45.7314 81.9208 45.7114 81.8062 45.6469 81.6976C45.5865 81.5899 45.4511 81.4885 45.2407 81.3934L44.3774 81.0024C44.1387 80.8973 43.9483 80.7782 43.8064 80.6451C43.6645 80.512 43.5684 80.3666 43.5182 80.2089C43.4689 80.0471 43.4625 79.8767 43.4991 79.6977C43.5467 79.4645 43.6521 79.2671 43.8153 79.1053C43.9834 78.9401 44.1997 78.8261 44.4641 78.763C44.7294 78.6958 45.0285 78.6962 45.3615 78.7642ZM51.8724 79.9078L52.0138 84.1117L51.3323 84.1346L51.1908 79.9307L51.8724 79.9078ZM59.2016 83.3275C58.8207 83.4328 58.4679 83.44 58.143 83.3491C57.8181 83.2582 57.5354 83.0806 57.2948 82.8165C57.0532 82.5483 56.8718 82.1952 56.7506 81.757C56.6317 81.327 56.6091 80.9343 56.6828 80.5789C56.7605 80.2224 56.9236 79.9194 57.172 79.67C57.4234 79.4154 57.7416 79.2348 58.1265 79.1284C58.5483 79.0118 58.9097 78.9956 59.2107 79.0799C59.5159 79.163 59.7915 79.3469 60.0377 79.6315L59.5094 80.0883C59.3693 79.8846 59.1939 79.7524 58.9832 79.6916C58.7754 79.6256 58.5445 79.6277 58.2906 79.6979C58.0367 79.7682 57.83 79.8892 57.6703 80.0612C57.5148 80.2321 57.4155 80.4469 57.3724 80.7056C57.3282 80.9603 57.3503 81.2473 57.4386 81.5668C57.528 81.8903 57.6516 82.1537 57.8092 82.3569C57.9656 82.5561 58.1545 82.6891 58.3757 82.7557C58.601 82.8213 58.8529 82.8156 59.1313 82.7386C59.2828 82.6967 59.419 82.6392 59.5399 82.5661C59.6596 82.4889 59.7584 82.3999 59.8363 82.299C59.9131 82.194 59.9622 82.0768 59.9838 81.9474C60.0083 81.8128 59.9984 81.6657 59.9543 81.506L59.922 81.3892L58.7426 81.7153L58.5949 81.1809L60.3578 80.6935L60.9353 82.782L60.4438 82.9179L60.1811 82.1111L60.3209 82.1385C60.294 82.4237 60.1857 82.6697 59.996 82.8764C59.8104 83.082 59.5456 83.2324 59.2016 83.3275ZM66.8145 75.6768L69.0463 79.2422L68.4629 79.6074L66.2311 76.042L66.8145 75.6768ZM64.47 77.1444L66.7018 80.7098L66.1238 81.0716L63.892 77.5062L64.47 77.1444ZM67.4696 77.372L67.7807 77.869L65.4416 79.3332L65.1305 78.8362L67.4696 77.372ZM72.8759 70.9847L73.287 71.4028L72.26 72.4126L74.7981 74.9937L74.3119 75.4719L71.7738 72.8908L70.7468 73.9007L70.3357 73.4826L72.8759 70.9847Z" fill="black"/>
<path d="M24.0873 45.8364L25.2367 49.3739H28.9563L25.9471 51.5603L27.0965 55.0978L24.0873 52.9115L21.0781 55.0978L22.2275 51.5603L19.2183 49.3739H22.9379L24.0873 45.8364Z" fill="#9A8F8A"/>
<path d="M81.0346 45.8364L82.184 49.3739H85.9036L82.8944 51.5603L84.0438 55.0978L81.0346 52.9115L78.0254 55.0978L79.1748 51.5603L76.1656 49.3739H79.8852L81.0346 45.8364Z" fill="#9A8F8A"/>
<path d="M59.4014 61.4019H45.4014C43.7445 61.4019 42.4014 60.0588 42.4014 58.4019V42.4019C42.4014 41.8496 42.8491 41.4019 43.4014 41.4019H57.4014C57.9537 41.4019 58.4014 41.8496 58.4014 42.4019V54.4019H62.4014V58.4019C62.4014 60.0588 61.0583 61.4019 59.4014 61.4019ZM58.4014 56.4019V58.4019C58.4014 58.9542 58.8491 59.4019 59.4014 59.4019C59.9537 59.4019 60.4014 58.9542 60.4014 58.4019V56.4019H58.4014ZM46.4014 46.4019V48.4019H54.4014V46.4019H46.4014ZM46.4014 50.4019V52.4019H54.4014V50.4019H46.4014ZM46.4014 54.4019V56.4019H51.4014V54.4019H46.4014Z" fill="#5B524E"/>
<defs>
<linearGradient id="paint0_linear_2015_7114" x1="99.8784" y1="51.4392" x2="5" y2="51.4392" gradientUnits="userSpaceOnUse">
<stop stop-color="#E7E7E7"/>
<stop offset="1" stop-color="#C2C2C2"/>
</linearGradient>
</defs>
</svg>
