<svg width="167" height="49" viewBox="0 0 167 49" fill="none" xmlns="http://www.w3.org/2000/svg">
<g clip-path="url(#clip0_2015_6051)">
<path d="M68.4719 41.8105H63.7974L56.8328 30.3931C56.5411 30.3931 56.2538 30.3931 55.975 30.3931H48.7059V41.8105H44.709V12.6343H55.9278C58.531 12.6343 60.6452 13.0119 62.3136 13.7885C65.6072 15.3502 67.1897 18.1564 67.1897 21.606C67.2136 23.206 66.8062 24.783 66.0102 26.1712C65.0068 27.8402 63.3599 29.0887 61.0012 29.7795L68.4719 41.8105ZM48.7059 15.7578V27.2266H55.8292C57.3006 27.2849 58.7689 27.0486 60.1477 26.5315C62.2921 25.6391 63.2399 23.9058 63.2399 21.5888C63.2668 20.5184 63.014 19.4595 62.5066 18.5167C61.503 16.7576 59.3888 15.7536 55.8078 15.7536L48.7059 15.7578Z" fill="#023E38"/>
<path d="M74.0059 40.8537C70.6221 38.9829 68.6409 35.5076 68.6409 30.9853C68.5857 28.8932 69.0765 26.8229 70.0647 24.9784C71.9345 21.5932 75.4297 19.6109 79.9027 19.6109C81.9642 19.5651 84.003 20.0482 85.8252 21.014C89.2045 22.9061 91.2074 26.4029 91.2074 30.9681C91.2592 33.0324 90.7682 35.0743 89.7835 36.8892C87.8923 40.2745 84.4228 42.2568 79.9197 42.2568C77.8596 42.3163 75.82 41.8324 74.0059 40.8537ZM84.1312 38.1162C86.3355 36.5803 87.382 33.9071 87.382 30.9896C87.3946 29.5766 87.1219 28.1756 86.58 26.8706C85.5121 24.3305 83.355 22.64 79.9027 22.64C78.4216 22.5748 76.9579 22.9804 75.7213 23.7985C73.517 25.3559 72.4705 28.0505 72.4705 30.9896C72.4604 32.3885 72.7331 33.7751 73.2725 35.0656C74.3404 37.58 76.5189 39.2705 79.9027 39.2705C81.3982 39.3381 82.8773 38.9345 84.1312 38.1162Z" fill="#023E38"/>
<path d="M103.914 41.8117H99.9941L90.8252 19.9038H94.9679L101.83 37.3794H102.096L108.957 19.9038H113.096L103.914 41.8117Z" fill="#023E38"/>
<path d="M134.691 32.0155H116.619C116.654 33.3233 116.994 34.6047 117.614 35.7569C118.93 38.0696 121.332 39.2709 124.424 39.2709C125.344 39.2821 126.26 39.1475 127.139 38.8719C127.911 38.6594 128.624 38.2745 129.226 37.7461C129.828 37.2176 130.302 36.5596 130.612 35.8213L134.309 36.7567C133.919 37.8707 133.252 38.8672 132.371 39.6529C130.548 41.3219 127.786 42.2786 124.424 42.2786C122.275 42.338 120.146 41.8477 118.24 40.8542C114.745 38.9834 112.806 35.4866 112.806 31.033C112.765 28.9685 113.238 26.9263 114.183 25.0905C116.031 21.6579 119.458 19.6327 123.931 19.6327C126.582 19.574 129.174 20.4234 131.277 22.0399C133.37 23.7303 134.708 26.4936 134.708 30.5653L134.691 32.0155ZM116.64 29.1065H130.818C130.725 28.1311 130.477 27.1768 130.085 26.279C129.039 24.0092 126.967 22.6276 123.918 22.6276C122.548 22.5915 121.195 22.9297 120.002 23.6059C119.042 24.1851 118.234 24.9873 117.649 25.9448C117.064 26.9024 116.718 27.9869 116.64 29.1065Z" fill="#023E38"/>
<path d="M139.167 15.4888C139.507 15.4888 139.844 15.552 140.161 15.675L140.224 15.7004C140.538 15.8314 140.825 16.0197 141.071 16.2554L141.12 16.3031C141.36 16.5449 141.553 16.8295 141.69 17.1418L141.717 17.2048C141.855 17.5418 141.926 17.9031 141.925 18.2677V42.4957H138.131V20.3285L138.129 20.255C138.112 19.9124 137.978 19.5861 137.749 19.3315L137.699 19.2781C137.422 18.9993 137.046 18.8423 136.655 18.8414H132.066V15.4888H139.167Z" fill="#023E38" stroke="#DF7A21" stroke-width="0.0353573"/>
<path d="M156.018 15.1558C159.177 15.1558 161.922 16.4116 163.876 18.769C165.83 21.1264 166.994 24.5857 166.994 28.9927C166.994 33.3998 165.82 36.859 163.86 39.2164C161.901 41.5738 159.157 42.8297 156.018 42.8297C152.879 42.8297 150.125 41.5738 148.155 39.2164C146.186 36.859 145.001 33.3998 145.001 28.9927C145.001 24.5857 146.176 21.1264 148.14 18.769C150.104 16.4116 152.858 15.1558 156.018 15.1558ZM156.018 18.5857C153.916 18.5857 152.123 19.4563 150.855 21.1929C149.588 22.9292 148.846 25.5309 148.846 28.9927C148.846 32.4544 149.578 35.0553 150.84 36.7908C152.103 38.5264 153.896 39.3962 156.018 39.3962C158.139 39.3962 159.923 38.5256 161.176 36.7895C162.427 35.0537 163.149 32.4528 163.149 28.9927C163.149 25.5309 162.418 22.9293 161.16 21.1929C159.902 19.4565 158.119 18.5857 156.018 18.5857Z" fill="#023E38" stroke="#DF7A21" stroke-width="0.0353573"/>
<path fill-rule="evenodd" clip-rule="evenodd" d="M8.62929 25.1278C3.86358 19.7051 4.39407 11.4442 9.81417 6.67621L12.2248 4.55566L14.7451 7.42339L12.3345 9.54393C8.49742 12.9193 8.12187 18.7674 11.4957 22.6062L23.9603 36.7892C26.7943 40.0139 31.7043 40.3295 34.9274 37.4943C38.1506 34.6589 38.466 29.7465 35.6321 26.5219L24.6281 14.001C22.9223 12.0601 19.9667 11.8701 18.0267 13.5767C16.0867 15.2833 15.8968 18.2404 17.6025 20.1813L27.8157 31.8025C28.1284 32.158 28.779 32.2408 29.2337 31.8672C29.6622 31.464 29.6633 30.8077 29.3508 30.4521L17.9306 17.4576L20.797 14.936L32.2172 27.9306C33.992 29.95 33.678 32.9907 31.7813 34.7109L31.7818 34.7114L31.727 34.7595L31.7265 34.7592C29.7786 36.421 26.7242 36.3433 24.9494 34.3239L14.7362 22.7029C11.6385 19.178 11.9833 13.8082 15.5064 10.709C19.0295 7.60978 24.3968 7.95479 27.4945 11.4795L38.4984 24.0003C42.7243 28.8087 42.2539 36.134 37.4478 40.3619C32.6415 44.5898 25.3198 44.1192 21.094 39.3108L8.62929 25.1278Z" fill="#CC5500"/>
</g>
<defs>
<clipPath id="clip0_2015_6051">
<rect width="167" height="48.1496" fill="white"/>
</clipPath>
</defs>
</svg>
