<svg width="106" height="106" viewBox="0 0 106 106" fill="none" xmlns="http://www.w3.org/2000/svg">
<path d="M45.3547 5.13542C49.6672 2.06209 55.4544 2.06209 59.7669 5.13542L64.9517 8.8303C66.7836 10.1358 68.9358 10.9191 71.1783 11.0966L77.525 11.5988C82.8041 12.0166 87.2373 15.7365 88.5655 20.8629L90.1622 27.026C90.7263 29.2036 91.8715 31.1871 93.4753 32.7645L98.0143 37.2288C101.79 40.9422 102.795 46.6414 100.517 51.4221L97.7786 57.1697C96.811 59.2005 96.4133 61.456 96.6279 63.6952L97.2354 70.0328C97.7407 75.3042 94.8472 80.316 90.0293 82.5142L84.2371 85.1568C82.1905 86.0906 80.436 87.5627 79.1611 89.4161L75.5528 94.6614C72.5514 99.0244 67.1133 101.004 62.0097 99.5907L55.8739 97.8919C53.7059 97.2917 51.4156 97.2917 49.2477 97.8919L43.1119 99.5907C38.0083 101.004 32.5702 99.0244 29.5688 94.6614L25.9605 89.4161C24.6855 87.5627 22.9311 86.0906 20.8845 85.1568L15.0923 82.5142C10.2744 80.316 7.38085 75.3042 7.88615 70.0328L8.49364 63.6952C8.70829 61.456 8.31058 59.2005 7.34301 57.1697L4.60458 51.4221C2.32682 46.6414 3.33174 40.9422 7.10724 37.2288L11.6463 32.7645C13.2501 31.1871 14.3953 29.2036 14.9594 27.026L16.5561 20.8629C17.8842 15.7365 22.3175 12.0166 27.5966 11.5988L33.9433 11.0966C36.1858 10.9191 38.338 10.1358 40.1699 8.8303L45.3547 5.13542Z" fill="white"/>
<path d="M45.4746 5.30371C49.7152 2.28169 55.4058 2.28184 59.6465 5.30371L64.832 8.99902C66.6944 10.3261 68.8824 11.1223 71.1621 11.3027L77.5088 11.8047C82.6999 12.2155 87.0593 15.8741 88.3652 20.915L89.9619 27.0781C90.5355 29.2919 91.6996 31.3085 93.3301 32.9121L97.8691 37.376C101.582 41.0274 102.57 46.632 100.33 51.333L97.5918 57.0811C96.6082 59.1456 96.2037 61.4384 96.4219 63.7148L97.0293 70.0527C97.5261 75.2363 94.6809 80.1647 89.9434 82.3262L84.1514 84.9688C82.0707 85.9181 80.2864 87.4146 78.9902 89.2988L75.3818 94.5439C72.4305 98.8341 67.083 100.781 62.0645 99.3916L55.9287 97.6924C53.7247 97.0823 51.3963 97.0822 49.1924 97.6924L43.0566 99.3916C38.0381 100.781 32.6905 98.8342 29.7393 94.5439L26.1309 89.2988C24.8347 87.4147 23.0512 85.9181 20.9707 84.9688L15.1777 82.3262C10.4404 80.1647 7.59503 75.2361 8.0918 70.0527L8.69922 63.7148C8.91741 61.4385 8.51379 59.1455 7.53027 57.0811L4.79102 51.333C2.55135 46.632 3.53945 41.0274 7.25195 37.376L11.791 32.9121C13.4215 31.3085 14.5866 29.292 15.1602 27.0781L16.7568 20.915C18.0628 15.8741 22.4222 12.2155 27.6133 11.8047L33.96 11.3027C36.2397 11.1223 38.4277 10.3262 40.29 8.99902L45.4746 5.30371Z" stroke="white" stroke-opacity="0.5" style="mix-blend-mode:soft-light" stroke-width="0.413893"/>
<path d="M46.0564 9.7566C49.9487 6.98274 55.1719 6.98274 59.0643 9.7566L63.7438 13.0914C65.3972 14.2697 67.3397 14.9767 69.3637 15.1369L75.092 15.5902C79.8567 15.9673 83.8579 19.3247 85.0566 23.9515L86.4977 29.5141C87.0069 31.4796 88.0405 33.2697 89.488 34.6934L93.5848 38.7228C96.9924 42.0743 97.8994 47.2182 95.8436 51.5331L93.372 56.7206C92.4987 58.5535 92.1398 60.5892 92.3335 62.6103L92.8818 68.3303C93.3379 73.0881 90.7262 77.6115 86.3778 79.5955L81.15 81.9806C79.3029 82.8234 77.7194 84.1521 76.5686 85.8249L73.3119 90.5591C70.603 94.4969 65.6948 96.2834 61.0885 95.0081L55.5506 93.4748C53.5939 92.9331 51.5267 92.9331 49.57 93.4748L44.0321 95.0081C39.4258 96.2834 34.5176 94.4969 31.8087 90.5591L28.552 85.8249C27.4013 84.1521 25.8177 82.8234 23.9706 81.9807L18.7428 79.5955C14.3944 77.6115 11.7827 73.0881 12.2388 68.3303L12.7871 62.6103C12.9808 60.5892 12.6219 58.5535 11.7486 56.7206L9.277 51.5331C7.22118 47.2182 8.12818 42.0743 11.5358 38.7228L15.6326 34.6934C17.0801 33.2697 18.1137 31.4796 18.6229 29.5141L20.064 23.9515C21.2627 19.3247 25.2639 15.9673 30.0286 15.5902L35.7569 15.1369C37.7809 14.9767 39.7234 14.2698 41.3768 13.0914L46.0564 9.7566Z" fill="url(#paint0_linear_2015_7094)"/>
<path d="M46.165 9.90869C49.9925 7.1812 55.1287 7.18111 58.9561 9.90869L63.6357 13.2437C65.3166 14.4414 67.2911 15.1599 69.3486 15.3228L75.0771 15.7769C79.7624 16.1476 83.6973 19.4488 84.876 23.9985L86.3174 29.561C86.8351 31.5592 87.8858 33.3793 89.3574 34.8267L93.4541 38.856C96.8048 42.1516 97.6963 47.2097 95.6748 51.4526L93.2031 56.6401C92.3153 58.5036 91.9505 60.5737 92.1475 62.6284L92.6963 68.3481C93.1447 73.0264 90.5764 77.4743 86.3008 79.4253L81.0723 81.811C79.1945 82.6678 77.5849 84.0187 76.415 85.7192L73.1582 90.4536C70.4945 94.3256 65.6681 96.0816 61.1387 94.8276L55.6006 93.2944C53.6114 92.7437 51.5097 92.7438 49.5205 93.2944L43.9824 94.8276C39.453 96.0817 34.6267 94.3255 31.9629 90.4536L28.7061 85.7192C27.5362 84.0186 25.9258 82.6678 24.0479 81.811L18.8203 79.4253C14.5444 77.4744 11.9764 73.0266 12.4248 68.3481L12.9727 62.6284C13.1696 60.5737 12.8048 58.5036 11.917 56.6401L9.44531 51.4526C7.42387 47.2097 8.31622 42.1516 11.667 38.856L15.7637 34.8267C17.2353 33.3793 18.286 31.5592 18.8037 29.561L20.2451 23.9985C21.4238 19.4489 25.3579 16.1478 30.043 15.7769L35.7715 15.3228C37.8292 15.1599 39.8044 14.4416 41.4854 13.2437L46.165 9.90869Z" stroke="white" stroke-opacity="0.5" style="mix-blend-mode:soft-light" stroke-width="0.373562"/>
<g opacity="0.5" style="mix-blend-mode:soft-light">
<path d="M83.6387 29.0459L84.0635 30.6836V30.6846L83.8662 30.7354L84.1309 31.7598C84.2361 32.1659 84.3716 32.5623 84.5352 32.9453L84.7236 32.8643V32.8633C84.98 33.4638 85.3074 34.0313 85.6992 34.5537V34.5547L85.5361 34.6777C85.7861 35.0109 86.0612 35.3269 86.3604 35.6211L87.1143 36.3623L87.2578 36.2168V36.2158L88.4639 37.4033H88.4648L88.3213 37.5488L89.8291 39.0332L89.9727 38.8867V38.8857L91.1787 40.0732L91.0361 40.2197L91.79 40.9619C92.0085 41.1768 92.2131 41.4015 92.4023 41.6357L92.5605 41.5078C92.8767 41.8993 93.1518 42.3156 93.3867 42.75L93.209 42.8477C93.4995 43.3852 93.7257 43.9517 93.8848 44.5352L94.0801 44.4814C94.2113 44.9628 94.2985 45.455 94.3398 45.9521L94.1377 45.9688C94.1878 46.5715 94.1692 47.1815 94.0801 47.7861L94.2803 47.8145C94.2082 48.3035 94.092 48.7892 93.9287 49.2656L93.7363 49.2002C93.6875 49.3426 93.6345 49.4845 93.5771 49.625L93.3916 50.0439L92.9365 50.999L93.1211 51.0859L92.3936 52.6143L92.209 52.5264L91.2988 54.4365L91.4834 54.5244L90.7559 56.0527L90.5713 55.9648L90.1162 56.9199C89.9358 57.2987 89.784 57.6893 89.6631 58.0879L89.8594 58.1465C89.6697 58.7715 89.5561 59.4171 89.5205 60.0693L89.3164 60.0576C89.2937 60.4736 89.3018 60.8928 89.3418 61.3105L89.4424 62.3633L89.6455 62.3438L89.8066 64.0283H89.8076L89.6045 64.0479L89.8057 66.1543L90.0098 66.1348V66.1338L90.1709 67.8184V67.8193L89.9678 67.8389L90.0684 68.8916C90.0976 69.1966 90.1091 69.5007 90.1035 69.8018L90.3076 69.8047C90.2983 70.3084 90.2411 70.8047 90.1416 71.2891L89.9424 71.249C89.8194 71.8475 89.6282 72.4265 89.375 72.9756L89.5596 73.0605C89.3508 73.5134 89.1012 73.9462 88.8135 74.3535L88.6475 74.2363C88.2984 74.7303 87.8925 75.1859 87.4355 75.5918L87.5703 75.7432C87.2005 76.0716 86.7988 76.3689 86.3672 76.6289L86.2627 76.4541C86.1338 76.5317 86.0023 76.606 85.8682 76.6768L85.457 76.8789L84.4951 77.3174L84.5801 77.5039L83.0391 78.2061L82.9551 78.0205L81.0303 78.8984L81.1152 79.085L79.5752 79.7871L79.4902 79.6016L78.5283 80.04C78.1465 80.2142 77.7795 80.4169 77.4307 80.6445L77.542 80.8154V80.8164C76.9953 81.1732 76.4931 81.5938 76.0469 82.0703L75.8975 81.9307C75.6841 82.1585 75.4833 82.3988 75.2959 82.6504L75.1123 82.9062L74.5127 83.7773L74.6816 83.8936L73.7217 85.2871L73.5537 85.1719L72.3545 86.915L72.5234 87.0312L71.5635 88.4248L71.3955 88.3096L70.7959 89.1816C70.6222 89.4341 70.4351 89.6734 70.2373 89.9004L70.3906 90.0342C70.0597 90.4139 69.6981 90.7585 69.3105 91.0654L69.1846 90.9053C68.7055 91.2848 68.1867 91.6063 67.6396 91.8643L67.7256 92.0469C67.2746 92.2595 66.8054 92.4306 66.3232 92.5576L66.2715 92.3623C65.6868 92.5163 65.0833 92.6039 64.4727 92.6211L64.4775 92.8232C63.9837 92.8371 63.4855 92.8076 62.9883 92.7295L63.0195 92.5283C62.7221 92.4816 62.4252 92.4167 62.1299 92.335L61.1104 92.0527L61.0557 92.249L59.4248 91.7979L59.4795 91.6016L57.4404 91.0371L57.3857 91.2334L55.7529 90.7822L55.8086 90.585L54.7891 90.3027C54.3848 90.1908 53.974 90.1104 53.5605 90.0605L53.5361 90.2637H53.5352C52.8871 90.1856 52.232 90.1855 51.584 90.2637L51.5596 90.0605C51.2496 90.0979 50.9411 90.1523 50.6357 90.2246L50.3311 90.3027L49.3115 90.585L49.3662 90.7822L47.7334 91.2334L47.6797 91.0371L45.6416 91.6016L45.6943 91.7979L44.0635 92.249L44.0098 92.0527L42.9902 92.335C42.6949 92.4167 42.398 92.4816 42.1006 92.5283L42.1309 92.7295C41.6336 92.8075 41.1354 92.8372 40.6416 92.8232L40.6475 92.6211C40.0368 92.6039 39.4333 92.5163 38.8486 92.3623L38.7959 92.5576C38.3137 92.4306 37.8445 92.2596 37.3936 92.0469L37.4805 91.8643C36.9334 91.6063 36.4146 91.2848 35.9355 90.9053L35.8086 91.0654C35.4211 90.7584 35.0594 90.4139 34.7285 90.0342L34.8828 89.9004C34.685 89.6734 34.4979 89.4341 34.3242 89.1816L33.7246 88.3096L33.5566 88.4248L32.5967 87.0303L32.7656 86.915L31.5664 85.1719L31.3975 85.2871L30.4375 83.8936L30.6074 83.7773L30.0078 82.9062L29.8242 82.6504C29.6368 82.3988 29.436 82.1585 29.2227 81.9307L29.0732 82.0703H29.0723C28.626 81.5938 28.1239 81.1731 27.5771 80.8164L27.5781 80.8154L27.6895 80.6445C27.3406 80.4169 26.9736 80.2142 26.5918 80.04L25.6299 79.6016L25.5449 79.7871H25.5439L24.0039 79.085L24.0898 78.8984L22.165 78.0205L22.0801 78.2061L20.5391 77.5039H20.54L20.625 77.3174L19.6631 76.8789L19.252 76.6768C19.1178 76.606 18.9863 76.5317 18.8574 76.4541L18.752 76.6289C18.3204 76.3688 17.9185 76.0716 17.5488 75.7432L17.6846 75.5918C17.2276 75.1859 16.8217 74.7303 16.4727 74.2363L16.3057 74.3535C16.018 73.9462 15.7683 73.5134 15.5596 73.0605L15.7451 72.9756C15.4919 72.4265 15.3007 71.8475 15.1777 71.249L14.9785 71.2891C14.8791 70.8051 14.8209 70.309 14.8115 69.8057L15.0166 69.8018C15.011 69.5007 15.0225 69.1966 15.0518 68.8916L15.1523 67.8389L14.9492 67.8193L14.9482 67.8184L15.1094 66.1338L15.1104 66.1348L15.3145 66.1543L15.5156 64.0479L15.3125 64.0283L15.4736 62.3438L15.6777 62.3633L15.7783 61.3105C15.8084 60.9971 15.8208 60.683 15.8154 60.3701L15.8047 60.0576L15.5996 60.0693H15.5986C15.5631 59.4171 15.4495 58.7716 15.2598 58.1465H15.2607L15.457 58.0879C15.3361 57.6893 15.1844 57.2987 15.0039 56.9199L14.5498 55.9648L14.3643 56.0518L13.6357 54.5244L13.8213 54.4365L12.9111 52.5264L12.7256 52.6143L11.998 51.0859L12.1836 50.999L11.7285 50.0439L11.543 49.625C11.4856 49.4845 11.4326 49.3426 11.3838 49.2002L11.1904 49.2656C11.0271 48.7892 10.9109 48.3034 10.8389 47.8145L11.04 47.7861C10.9509 47.1815 10.9323 46.5715 10.9824 45.9688L10.7793 45.9521C10.8206 45.455 10.9079 44.9627 11.0391 44.4814L11.2354 44.5352C11.3944 43.9517 11.6206 43.3852 11.9111 42.8477L11.7324 42.75C11.9673 42.3156 12.2425 41.8992 12.5586 41.5078L12.7178 41.6357C12.8124 41.5186 12.9107 41.4035 13.0127 41.291L13.3301 40.9619L14.084 40.2197L13.9404 40.0742L13.9395 40.0732L15.1465 38.8857L15.1475 38.8867L15.291 39.0332L16.7988 37.5488L16.6553 37.4033L17.8613 36.2158L17.8623 36.2168L18.0059 36.3623L18.7598 35.6211C19.0589 35.3268 19.335 35.011 19.585 34.6777L19.4209 34.5547L19.4199 34.5537C19.8118 34.0313 20.1391 33.4639 20.3955 32.8633L20.3965 32.8643L20.585 32.9453C20.7076 32.6581 20.8142 32.3631 20.9043 32.0625L20.9893 31.7598L21.2549 30.7354L21.0566 30.6846L21.0557 30.6836L21.4805 29.0459L21.6787 29.0967L22.21 27.0488L22.0117 26.9971L22.0107 26.9961L22.4355 25.3594L22.6338 25.4102L22.8994 24.3867C22.9763 24.09 23.0695 23.8005 23.1777 23.5195L22.9873 23.4453C23.1684 22.9754 23.3913 22.5283 23.6504 22.1074L23.8232 22.2148C24.1435 21.6945 24.5215 21.2156 24.9473 20.7861L24.8027 20.6426C25.1539 20.2884 25.5365 19.9669 25.9463 19.6826L26.0625 19.8506C26.5594 19.5058 27.0968 19.2163 27.665 18.9912L27.5898 18.8018C28.0493 18.6197 28.5283 18.4776 29.0225 18.3809L29.0615 18.582C29.3571 18.5242 29.6583 18.4822 29.9639 18.458L31.0186 18.375L31.002 18.1709L32.6895 18.0371L32.7061 18.2412L34.8145 18.0742L34.7988 17.8701L36.4854 17.7363L36.4863 17.7373L36.502 17.9414L37.5566 17.8574C37.9748 17.8243 38.3884 17.7596 38.7939 17.665L38.748 17.4658L38.7471 17.4648C39.3831 17.3166 39.9985 17.0921 40.5811 16.7969L40.582 16.7988L40.6748 16.9814C40.9535 16.8402 41.225 16.6832 41.4873 16.5107L41.7461 16.333L42.6074 15.7188L42.4893 15.5518L43.8672 14.5693L43.9863 14.7363L45.709 13.5088L45.5908 13.3418L46.9688 12.3594L47.0879 12.5264L47.9492 11.9121C48.1988 11.7343 48.4562 11.5724 48.7197 11.4268L48.6201 11.248C49.0609 11.0044 49.5192 10.8054 49.9883 10.6494L50.0527 10.8428C50.6326 10.65 51.2298 10.526 51.832 10.4707L51.8135 10.2686C52.3099 10.223 52.8093 10.223 53.3057 10.2686L53.2881 10.4707C53.8903 10.526 54.4875 10.65 55.0674 10.8428L55.1309 10.6494C55.6 10.8053 56.0582 11.0044 56.499 11.248L56.4004 11.4268C56.6639 11.5724 56.9214 11.7343 57.1709 11.9121L58.0322 12.5264L58.1504 12.3594L59.5293 13.3418L59.4111 13.5088L61.1338 14.7363L61.252 14.5693L62.6299 15.5518L62.5127 15.7188L63.374 16.333C63.7157 16.5765 64.0738 16.7932 64.4453 16.9814L64.5381 16.7988V16.7969C65.1206 17.0922 65.7361 17.3165 66.3721 17.4648V17.4658L66.3262 17.665C66.7318 17.7596 67.1452 17.8243 67.5635 17.8574L68.6182 17.9414L68.6338 17.7373V17.7363L70.3203 17.8701L70.3057 18.0742L72.4141 18.2412L72.4297 18.0371L74.1172 18.1709L74.1016 18.375L75.1562 18.458C75.4618 18.4822 75.763 18.5242 76.0586 18.582L76.0967 18.3809C76.5909 18.4775 77.0698 18.6198 77.5293 18.8018L77.4551 18.9912C78.0233 19.2163 78.5607 19.5058 79.0576 19.8506L79.1729 19.6826C79.5827 19.9669 79.9652 20.2884 80.3164 20.6426L80.1729 20.7861C80.5986 21.2156 80.9766 21.6944 81.2969 22.2148L81.4697 22.1074C81.7288 22.5282 81.9507 22.9755 82.1318 23.4453L81.9424 23.5195C82.0506 23.8005 82.1438 24.09 82.2207 24.3867L82.4863 25.4102L82.6836 25.3594L83.1084 26.9961V26.9971L82.9111 27.0488L83.4414 29.0967L83.6387 29.0459Z" stroke="white" stroke-width="0.409345" stroke-dasharray="2.05 1.64"/>
</g>
<path d="M28.039 32.6486C28.2836 32.3603 28.5503 32.1576 28.8392 32.0405C29.1248 31.9206 29.4347 31.8771 29.769 31.91L29.8074 32.5444C29.515 32.5081 29.2624 32.5333 29.0495 32.6201C28.836 32.7009 28.64 32.8465 28.4613 33.0571C28.3293 33.2126 28.2418 33.3585 28.1987 33.4946C28.1556 33.6308 28.1491 33.7534 28.1791 33.8625C28.2087 33.9656 28.2672 34.0542 28.3547 34.1284C28.4551 34.2137 28.5714 34.2539 28.7037 34.249C28.8387 34.241 29.0083 34.1593 29.2126 34.0039L29.9109 33.4764C30.2428 33.2231 30.5334 33.0908 30.7827 33.0794C31.032 33.068 31.2635 33.153 31.4773 33.3345C31.6749 33.5021 31.8013 33.7013 31.8564 33.9319C31.9114 34.1625 31.8967 34.4064 31.8123 34.6635C31.7306 34.9173 31.5812 35.1723 31.364 35.4282C31.1716 35.655 30.9693 35.8343 30.757 35.9663C30.5448 36.0982 30.3307 36.1896 30.1148 36.2405C29.8989 36.2913 29.6891 36.3055 29.4853 36.283L29.4308 35.6183C29.6019 35.6465 29.7768 35.6472 29.9555 35.6205C30.1309 35.591 30.3007 35.5289 30.4647 35.4341C30.6315 35.336 30.7864 35.2027 30.9293 35.0343C31.0558 34.8852 31.1466 34.7421 31.2016 34.605C31.2595 34.4646 31.2777 34.338 31.2564 34.2252C31.2346 34.1064 31.1751 34.0058 31.0779 33.9233C30.984 33.8436 30.8739 33.8059 30.7476 33.8102C30.6241 33.8113 30.4701 33.8812 30.2855 34.0199L29.5273 34.5885C29.3202 34.7471 29.1242 34.8566 28.9393 34.917C28.7543 34.9774 28.5806 34.9916 28.4183 34.9597C28.2527 34.9251 28.1002 34.8486 27.9609 34.7304C27.7795 34.5765 27.6571 34.3891 27.5938 34.1682C27.53 33.9413 27.534 33.6968 27.606 33.4347C27.6747 33.1698 27.819 32.9078 28.039 32.6486ZM33.5216 27.4157L33.8908 27.8713L32.7717 28.778L35.0507 31.5906L34.5208 32.0199L32.2419 29.2074L31.1228 30.1141L30.7537 29.6586L33.5216 27.4157ZM37.3119 24.9787C37.7101 24.7682 38.0783 24.7011 38.4164 24.7771C38.7583 24.8511 39.0185 25.0572 39.1972 25.3953C39.3818 25.7447 39.4063 26.0777 39.2709 26.3943C39.1373 26.7052 38.8713 26.9658 38.4731 27.1762L38.4346 27.2398L37.5725 27.6954L38.3586 29.183L37.7613 29.4986L35.7962 25.7796L37.3119 24.9787ZM38.1809 26.7324C38.4251 26.6033 38.5796 26.4592 38.6445 26.3C38.7111 26.1351 38.6898 25.9493 38.5806 25.7427C38.4734 25.5398 38.3329 25.4195 38.1591 25.3815C37.9891 25.3417 37.782 25.3862 37.5378 25.5152L36.6644 25.9767L37.3075 27.1939L38.1809 26.7324ZM38.6014 26.6688L40.7985 27.8937L40.1054 28.26L38.2081 27.1793L38.6014 26.6688ZM44.6481 22.0655L45.3688 24.5572C45.5234 25.0919 45.4989 25.5346 45.2952 25.8854C45.0915 26.2363 44.7203 26.4896 44.1815 26.6454C43.6509 26.7989 43.2038 26.7823 42.8402 26.5955C42.4807 26.4076 42.2236 26.0463 42.0689 25.5117L41.3482 23.0199L42.0033 22.8305L42.701 25.2426C42.8108 25.6222 42.9738 25.8802 43.1902 26.0166C43.4066 26.1531 43.6821 26.1729 44.0168 26.0761C44.3556 25.9781 44.58 25.8137 44.6902 25.5828C44.8003 25.3519 44.8005 25.0467 44.6907 24.6671L43.993 22.2549L44.6481 22.0655ZM51.4482 24.1458C51.3843 24.4068 51.2749 24.6331 51.1201 24.8249C50.9649 25.0123 50.7766 25.1599 50.5552 25.2675C50.3338 25.3751 50.0855 25.4402 49.8102 25.4627C49.4079 25.4956 49.0515 25.4373 48.7409 25.2879C48.4303 25.1386 48.1813 24.9095 47.9941 24.6009C47.8069 24.2922 47.6949 23.9134 47.6582 23.4645C47.6215 23.0157 47.6705 22.6237 47.8051 22.2887C47.9397 21.9538 48.1481 21.6873 48.4303 21.4895C48.7125 21.2916 49.0527 21.1764 49.4507 21.1439C49.726 21.1214 49.9768 21.1392 50.2033 21.1975C50.4339 21.2553 50.6338 21.3541 50.803 21.4937C50.9721 21.6334 51.1084 21.8141 51.2118 22.0358L50.5936 22.3741C50.4885 22.1312 50.3508 21.9591 50.1805 21.8579C50.0099 21.7525 49.7955 21.7104 49.5371 21.7315C49.2788 21.7526 49.0573 21.8325 48.8726 21.9713C48.6878 22.11 48.5499 22.3003 48.4588 22.5422C48.372 22.7838 48.3423 23.0718 48.3696 23.4064C48.3966 23.7367 48.4706 24.0162 48.5917 24.2451C48.7123 24.4697 48.873 24.6356 49.0736 24.7428C49.2742 24.85 49.5079 24.8927 49.7746 24.8709C50.033 24.8498 50.2499 24.766 50.4255 24.6195C50.605 24.4684 50.724 24.2562 50.7827 23.9828L51.4482 24.1458ZM57.157 21.3475L57.0906 21.93L55.6595 21.767L55.2499 25.3637L54.5724 25.2866L54.982 21.6899L53.5509 21.5269L53.6173 20.9443L57.157 21.3475ZM63.1162 22.8635L62.3165 25.331C62.1449 25.8605 61.8765 26.2134 61.5111 26.3898C61.1458 26.5662 60.6964 26.5679 60.1629 26.395C59.6374 26.2247 59.2765 25.9604 59.08 25.6019C58.8875 25.2448 58.8771 24.8015 59.0487 24.272L59.8484 21.8045L60.4971 22.0147L59.723 24.4034C59.6011 24.7793 59.5916 25.0844 59.6943 25.3187C59.7971 25.5529 60.0141 25.7238 60.3456 25.8312C60.681 25.9399 60.9591 25.9295 61.1797 25.8C61.4003 25.6705 61.5715 25.4179 61.6933 25.042L62.4675 22.6533L63.1162 22.8635ZM67.56 24.844C67.9517 25.0663 68.2065 25.3403 68.3245 25.6662C68.4462 25.9941 68.4126 26.3244 68.2239 26.657C68.0289 27.0006 67.7615 27.2006 67.4218 27.257C67.0878 27.3117 66.725 27.228 66.3333 27.0057L66.259 27.0075L65.4109 26.5263L64.5806 27.9896L63.993 27.6562L66.069 23.9979L67.56 24.844ZM66.55 26.5205C66.7902 26.6568 66.9948 26.7094 67.1639 26.6783C67.3388 26.6457 67.4839 26.5277 67.5992 26.3245C67.7124 26.1249 67.7382 25.9417 67.6766 25.7748C67.6187 25.6101 67.4696 25.4595 67.2294 25.3232L66.3703 24.8357L65.6909 26.033L66.55 26.5205ZM66.83 26.8406L66.9806 29.3515L66.2989 28.9647L66.188 26.784L66.83 26.8406ZM68.6909 30.415L71.4318 27.2244L73.7426 29.2094L73.3605 29.6542L71.567 28.1135L70.778 29.032L72.1799 30.2363L71.8062 30.6714L70.4042 29.4671L69.5903 30.4146L71.4515 32.0134L71.0694 32.4582L68.6909 30.415ZM76.8261 32.3748C77.2448 32.8831 77.4294 33.3944 77.3797 33.9088C77.336 34.4237 77.0535 34.8959 76.5321 35.3255C76.0108 35.7551 75.4915 35.9434 74.9745 35.8905C74.4634 35.8381 73.9985 35.5578 73.5797 35.0495L72.6355 33.9035L75.8818 31.2288L76.8261 32.3748ZM74.0273 34.6807C74.311 35.025 74.6288 35.2036 74.9807 35.2165C75.3386 35.2299 75.7044 35.0826 76.0782 34.7746C76.4521 34.4666 76.665 34.1371 76.717 33.7859C76.775 33.4354 76.6621 33.0879 76.3785 32.7436L75.8678 32.1239L73.5167 34.061L74.0273 34.6807Z" fill="white"/>
<path d="M34.2446 78.2151L33.6749 77.7745L34.0319 76.6567L32.6355 75.5766L31.6433 76.2031L31.0888 75.7742L34.9175 73.4179L35.5628 73.917L34.2446 78.2151ZM33.1259 75.255L34.2199 76.1011L34.8764 74.1274L33.1259 75.255ZM39.828 76.7242C40.0974 76.8599 40.305 77.024 40.4507 77.2163C40.6002 77.4106 40.6861 77.6227 40.7082 77.8527C40.7303 78.0826 40.6792 78.3209 40.555 78.5676C40.4327 78.8104 40.2716 78.9933 40.0717 79.1162C39.8738 79.2354 39.6522 79.2927 39.4071 79.2881C39.1658 79.2855 38.9105 79.2164 38.641 79.0807L37.8043 78.6592L37.0991 80.0594L36.49 79.7527L38.3822 75.996L39.828 76.7242ZM38.808 78.5083C39.0775 78.644 39.3025 78.6883 39.4831 78.6414C39.6695 78.5925 39.8162 78.4619 39.9232 78.2494C40.0322 78.0331 40.0498 77.8374 39.9763 77.6624C39.9084 77.4855 39.7397 77.3292 39.4703 77.1935L38.7304 76.8208L38.0681 78.1356L38.808 78.5083ZM44.5935 78.6937C44.8836 78.7762 45.1184 78.8982 45.2977 79.0597C45.4812 79.2223 45.6054 79.4145 45.6704 79.6362C45.7355 79.8578 45.7302 80.1015 45.6546 80.3671C45.5802 80.6287 45.4565 80.8386 45.2833 80.997C45.1113 81.1513 44.9046 81.2493 44.663 81.291C44.4255 81.3339 44.1617 81.314 43.8716 81.2315L42.9705 80.9752L42.5415 82.4831L41.8856 82.2965L43.0365 78.2508L44.5935 78.6937ZM43.9278 80.6379C44.2179 80.7204 44.4473 80.7216 44.6158 80.6415C44.7897 80.5584 44.9091 80.4024 44.9742 80.1736C45.0405 79.9406 45.021 79.7452 44.9158 79.5871C44.8158 79.4262 44.6207 79.3044 44.3306 79.2219L43.5337 78.9952L43.1309 80.4112L43.9278 80.6379ZM49.7336 79.7295C50.1824 79.7672 50.5286 79.9093 50.7722 80.1557C51.0201 80.4025 51.128 80.7164 51.096 81.0975C51.0629 81.4912 50.9039 81.7849 50.619 81.9784C50.3388 82.168 49.9742 82.244 49.5254 82.2062L49.4587 82.239L48.4871 82.1574L48.3462 83.834L47.673 83.7774L48.0252 79.5859L49.7336 79.7295ZM49.5189 81.6749C49.7941 81.698 50.002 81.66 50.1425 81.561C50.2876 81.4581 50.3699 81.2902 50.3895 81.0573C50.4087 80.8287 50.3553 80.6515 50.2295 80.5258C50.1078 80.4005 49.9094 80.3262 49.6342 80.3031L48.6498 80.2204L48.5346 81.5921L49.5189 81.6749ZM49.9073 81.8482L51.096 84.065L50.3149 83.9994L49.3006 82.0658L49.9073 81.8482ZM55.1255 79.6792C55.5303 79.6297 55.8909 79.6734 56.2073 79.8103C56.5236 79.9472 56.7815 80.1661 56.9809 80.467C57.1803 80.768 57.3073 81.142 57.3619 81.589C57.4165 82.0361 57.3832 82.4297 57.2621 82.7698C57.1409 83.1098 56.9433 83.3844 56.6692 83.5933C56.3951 83.8023 56.0556 83.9315 55.6508 83.9809C55.2501 84.0299 54.8916 83.9859 54.5753 83.849C54.2589 83.7122 54.0011 83.4933 53.8017 83.1923C53.6023 82.8913 53.4753 82.5173 53.4207 82.0703C53.3661 81.6233 53.3994 81.2297 53.5205 80.8896C53.6416 80.5495 53.8392 80.275 54.1133 80.066C54.3874 79.857 54.7248 79.7281 55.1255 79.6792ZM55.1973 80.2675C54.9358 80.2994 54.7177 80.3881 54.5428 80.5336C54.3722 80.6786 54.2504 80.8732 54.1775 81.1175C54.1046 81.3619 54.0885 81.6506 54.1292 81.9838C54.1694 82.3127 54.2545 82.5891 54.3846 82.8129C54.5141 83.0325 54.6791 83.1922 54.8796 83.2918C55.0843 83.3909 55.3174 83.4245 55.5789 83.3926C55.8446 83.3602 56.0628 83.2715 56.2334 83.1265C56.4083 82.981 56.5321 82.7861 56.605 82.5418C56.6774 82.2933 56.6935 82.0045 56.6533 81.6756C56.6127 81.3424 56.5275 81.066 56.398 80.8464C56.2685 80.6268 56.1013 80.4674 55.8966 80.3683C55.6961 80.2687 55.463 80.2351 55.1973 80.2675ZM63.7397 82.0686L63.0562 82.2953L62.328 81.3751L60.6524 81.9308L60.6183 83.1037L59.9529 83.3244L60.1352 78.8324L60.9095 78.5756L63.7397 82.0686ZM60.6593 81.3444L61.972 80.909L60.7008 79.2625L60.6593 81.3444ZM68.6126 78.3956C68.6656 78.6591 68.6628 78.9104 68.604 79.1498C68.5432 79.3854 68.4354 79.599 68.2807 79.7905C68.126 79.982 67.9289 80.1464 67.6893 80.2837C67.3391 80.4844 66.9917 80.5831 66.647 80.5798C66.3023 80.5766 65.9797 80.475 65.6791 80.2751C65.3784 80.0752 65.1161 79.7799 64.8922 79.3892C64.6683 78.9984 64.5461 78.6228 64.5256 78.2624C64.5051 77.902 64.5806 77.5722 64.752 77.2732C64.9234 76.9742 65.1824 76.7254 65.5289 76.5268C65.7685 76.3895 66.0032 76.2991 66.2329 76.2556C66.4663 76.21 66.6892 76.2144 66.9017 76.269C67.1141 76.3235 67.3142 76.4292 67.5021 76.586L67.0862 77.1549C66.8878 76.9796 66.6901 76.8824 66.4929 76.8631C66.2937 76.8402 66.0817 76.8932 65.8568 77.022C65.6319 77.1509 65.4653 77.3174 65.357 77.5215C65.2487 77.7255 65.2048 77.9564 65.2251 78.2141C65.2491 78.4697 65.3446 78.743 65.5115 79.0343C65.6763 79.3218 65.8621 79.5434 66.0688 79.6992C66.2735 79.8512 66.4894 79.9331 66.7166 79.945C66.9437 79.9568 67.1734 79.8962 67.4056 79.7631C67.6305 79.6342 67.7913 79.4662 67.888 79.259C67.9863 79.0459 68.0039 78.8032 67.9408 78.5308L68.6126 78.3956ZM71.4708 72.3985L74.1782 75.6176L73.6515 76.0606L70.944 72.8416L71.4708 72.3985ZM69.354 74.1789L72.0615 77.3979L71.5396 77.8369L68.8321 74.6178L69.354 74.1789ZM72.356 73.9857L72.7334 74.4344L70.6215 76.2107L70.2441 75.762L72.356 73.9857Z" fill="white"/>
<path d="M24.0863 45.8364L25.2358 49.3739H28.9553L25.9461 51.5603L27.0955 55.0978L24.0863 52.9115L21.0772 55.0978L22.2266 51.5603L19.2174 49.3739H22.9369L24.0863 45.8364Z" fill="#BFF3EA"/>
<path d="M81.0336 45.8364L82.183 49.3739H85.9026L82.8934 51.5603L84.0428 55.0978L81.0336 52.9115L78.0244 55.0978L79.1738 51.5603L76.1646 49.3739H79.8842L81.0336 45.8364Z" fill="#BFF3EA"/>
<path d="M53.5912 46.6416V56.1618C53.5912 58.1335 51.9929 59.7319 50.0212 59.7319H47.438C46.9479 61.1185 45.6255 62.1119 44.071 62.1119C42.0994 62.1119 40.501 60.5136 40.501 58.5418C40.501 56.5701 42.0994 54.9718 44.071 54.9718C45.6255 54.9718 46.9479 55.9652 47.438 57.3518H50.0212C50.6784 57.3518 51.2112 56.819 51.2112 56.1618V46.6416C51.2112 44.6699 52.8095 43.0715 54.7812 43.0715H58.3513V39.5015L64.3014 44.2616L58.3513 49.0216V45.4516H54.7812C54.124 45.4516 53.5912 45.9844 53.5912 46.6416Z" fill="white"/>
<defs>
<linearGradient id="paint0_linear_2015_7094" x1="124.996" y1="5.05897" x2="-11.2092" y2="46.3813" gradientUnits="userSpaceOnUse">
<stop stop-color="#023E38"/>
<stop offset="1" stop-color="#83FBEF"/>
</linearGradient>
</defs>
</svg>
